<svg xmlns="http://www.w3.org/2000/svg" width="86" height="86" viewBox="0 0 86 86">
  <g id="error" transform="translate(-164 -157)">
    <g id="Ellipse_117" data-name="Ellipse 117" transform="translate(164 157)" fill="none" stroke="#e24c4b" stroke-width="3">
      <circle cx="43" cy="43" r="43" stroke="none"/>
      <circle cx="43" cy="43" r="41.5" fill="none"/>
    </g>
    <g id="Group_1893" data-name="Group 1893" transform="translate(-4325.924 -5485.935)">
      <path id="Path_1850" data-name="Path 1850" d="M271.078,366.147q-.135-4.831-.269-9.661c-.048-1.809.545-2.772,2.014-3.309,1.7-.62,3.73-.239,4.6,1a3.369,3.369,0,0,1,.59,1.874c-.09,4.276-.262,8.551-.407,12.826-.083,2.436-.172,4.871-.245,7.307a2.076,2.076,0,0,1-1.573,2.26,3.977,3.977,0,0,1-2.854.027,1.953,1.953,0,0,1-1.44-2.019q-.166-5.156-.333-10.312Z" transform="translate(4258.264 5314.05)" fill="#e24c4b"/>
      <path id="Path_1851" data-name="Path 1851" d="M269.913,537.09a3.838,3.838,0,0,1,3.87-3.847,3.876,3.876,0,0,1-.048,7.751A3.858,3.858,0,0,1,269.913,537.09Z" transform="translate(4259.012 5163.006)" fill="#e24c4b"/>
    </g>
  </g>
</svg>
