<svg xmlns="http://www.w3.org/2000/svg" width="40" height="40" viewBox="0 0 40 40">
  <g id="icon-internet" transform="translate(-190 -308)">
    <g id="router_1_" data-name="router (1)" transform="translate(191 310)">
      <path id="Path_1332" data-name="Path 1332" d="M34.042,26.25H3.958A3.963,3.963,0,0,1,0,22.292V15.958A3.963,3.963,0,0,1,3.958,12H34.042A3.963,3.963,0,0,1,38,15.958v6.333A3.963,3.963,0,0,1,34.042,26.25ZM3.958,13.583a2.378,2.378,0,0,0-2.375,2.375v6.333a2.378,2.378,0,0,0,2.375,2.375H34.042a2.378,2.378,0,0,0,2.375-2.375V15.958a2.378,2.378,0,0,0-2.375-2.375Z" transform="translate(0 6.417)" fill="#dda601"/>
      <path id="Path_1333" data-name="Path 1333" d="M3.792,24.75A.792.792,0,0,1,3,23.958V20.792a.792.792,0,0,1,1.583,0v3.167A.792.792,0,0,1,3.792,24.75Z" transform="translate(1.75 11.083)" fill="#dda601"/>
      <path id="Path_1334" data-name="Path 1334" d="M17.792,16.5A.792.792,0,0,1,17,15.708V7.792a.792.792,0,1,1,1.583,0v7.917A.792.792,0,0,1,17.792,16.5Z" transform="translate(9.917 3.5)" fill="#dda601"/>
      <path id="Path_1335" data-name="Path 1335" d="M20.792,24.75A.792.792,0,0,1,20,23.958V20.792a.792.792,0,1,1,1.583,0v3.167A.792.792,0,0,1,20.792,24.75Z" transform="translate(11.667 11.083)" fill="#dda601"/>
      <path id="Path_1336" data-name="Path 1336" d="M20.375,19.75a2.375,2.375,0,1,1,2.375-2.375A2.378,2.378,0,0,1,20.375,19.75Zm0-3.167a.792.792,0,1,0,.792.792A.793.793,0,0,0,20.375,16.583Z" transform="translate(10.5 8.167)" fill="#dda601"/>
      <path id="Path_1337" data-name="Path 1337" d="M5.375,19.75A2.375,2.375,0,1,1,7.75,17.375,2.378,2.378,0,0,1,5.375,19.75Zm0-3.167a.792.792,0,1,0,.792.792A.793.793,0,0,0,5.375,16.583Z" transform="translate(1.75 8.167)" fill="#dda601"/>
      <path id="Path_1338" data-name="Path 1338" d="M10.375,19.75a2.375,2.375,0,1,1,2.375-2.375A2.378,2.378,0,0,1,10.375,19.75Zm0-3.167a.792.792,0,1,0,.792.792A.793.793,0,0,0,10.375,16.583Z" transform="translate(4.667 8.167)" fill="#dda601"/>
      <path id="Path_1339" data-name="Path 1339" d="M23.338,7.863a.793.793,0,0,1-.681-.386,3.95,3.95,0,0,0-6.745,0,.793.793,0,0,1-1.362-.812,5.535,5.535,0,0,1,9.467,0,.791.791,0,0,1-.679,1.2Z" transform="translate(8.423 1.75)" fill="#dda601"/>
      <path id="Path_1340" data-name="Path 1340" d="M28,6.209a.8.8,0,0,1-.624-.3,8.687,8.687,0,0,0-13.667,0,.792.792,0,0,1-1.246-.977,10.274,10.274,0,0,1,16.161,0A.793.793,0,0,1,28,6.209Z" transform="translate(7.17 0)" fill="#dda601"/>
    </g>
    <rect id="Rectangle_319" data-name="Rectangle 319" width="40" height="40" transform="translate(190 308)" fill="none"/>
  </g>
</svg>
