<svg xmlns="http://www.w3.org/2000/svg" width="17.01" height="19.333" viewBox="0 0 17.01 19.333">
  <g id="icon-Phone-book" transform="translate(0 0)">
    <path id="Path_1404" data-name="Path 1404" d="M203.2,294.177h.421a1.681,1.681,0,0,1,1.816,1.774c.023,1.409.01,2.819.01,4.229,0,2.052-.012,4.1.007,6.155a.91.91,0,0,1-.605,1c-.441.177-.848.438-1.286.626a.55.55,0,0,0-.392.625,6.863,6.863,0,0,1-.018,1.131,1.641,1.641,0,0,1-1.631,1.524q-6.211.012-12.423,0c-.442,0-.643-.21-.647-.693-.01-1.246-.007-2.492-.007-3.738q0-6.891,0-13.782c0-1.066.054-1.117,1.1-1.117h11.668a1.733,1.733,0,0,1,1.965,1.934C203.177,293.944,203.188,294.042,203.2,294.177Zm-11.333,15.936h9.363c.635,0,.811-.17.813-.8,0-.981,0-1.962,0-2.944q0-6.284,0-12.567c0-.578-.194-.763-.772-.763h-9.4Zm-2.253-17.057v17.033h1.069V293.056Zm13.588,5.319c.356-.177.661-.316.95-.482a.362.362,0,0,0,.144-.265c.014-.577.018-1.154.006-1.73a.549.549,0,0,0-.558-.586c-.171-.013-.345,0-.542,0Zm1.105.728c-.379.189-.682.33-.973.491a.322.322,0,0,0-.148.225c-.014.447-.007.894-.007,1.4.363-.178.678-.322.98-.488a.325.325,0,0,0,.141-.234C204.312,300.062,204.3,299.626,204.3,299.1Zm-1.13,4.953c.391-.2.7-.347,1.01-.511a.244.244,0,0,0,.111-.175c.009-.459.005-.919.005-1.433-.363.179-.671.317-.962.483a.369.369,0,0,0-.157.263C203.166,303.109,203.175,303.536,203.175,304.057Zm.006,2.825c.358-.176.662-.319.958-.477.068-.036.152-.122.154-.188.013-.458.007-.917.007-1.445-.382.19-.7.339-1,.506a.285.285,0,0,0-.114.21C203.176,305.926,203.181,306.365,203.181,306.882Z" transform="translate(-188.441 -291.912)" fill="#ababab"/>
    <path id="Path_1405" data-name="Path 1405" d="M266.149,355.9c-1.105-.577-1.5-1.238-1.266-2.139a1.7,1.7,0,0,1,3.3.033c.2.906-.185,1.551-1.285,2.112a2.857,2.857,0,0,1,2.376,2.131,1.769,1.769,0,0,1,.056.294c.084.792-.069.966-.875.968q-1.98.005-3.96,0c-.662,0-.829-.2-.772-.852A2.883,2.883,0,0,1,266.149,355.9Zm-1.195,2.264h3.153a1.66,1.66,0,0,0-1.6-1.127A1.641,1.641,0,0,0,264.955,358.165Zm1.017-4a.555.555,0,0,0,.545.588.547.547,0,0,0,.568-.525.557.557,0,0,0-1.113-.063Z" transform="translate(-258.026 -347.932)" fill="#ababab"/>
    <path id="Path_1406" data-name="Path 1406" d="M266.461,458.548c-.7,0-1.407.005-2.11,0-.452,0-.691-.211-.689-.569s.24-.558.7-.56q2.129-.007,4.258,0c.452,0,.692.211.69.568s-.24.556-.7.561C267.893,458.553,267.177,458.548,266.461,458.548Z" transform="translate(-257.981 -444.917)" fill="#ababab"/>
  </g>
</svg>
