<svg xmlns="http://www.w3.org/2000/svg" width="40" height="40" viewBox="0 0 40 40">
  <g id="icon-insurance" transform="translate(-59 -395)">
    <g id="healthcare-covid19-coronavirus-hand-hearth" transform="translate(58.76 394.801)">
      <path id="Path_1348" data-name="Path 1348" d="M32.826,11.408H31.02V9.6a.6.6,0,0,0-.6-.6H28.01a.6.6,0,0,0-.6.6v1.806H25.6a.6.6,0,0,0-.6.6v2.408a.6.6,0,0,0,.6.6h1.806v1.806a.6.6,0,0,0,.6.6h2.408a.6.6,0,0,0,.6-.6V15.02h1.806a.6.6,0,0,0,.6-.6V12.01A.6.6,0,0,0,32.826,11.408Zm-.6,2.408H30.418a.6.6,0,0,0-.6.6v1.806h-1.2V14.418a.6.6,0,0,0-.6-.6H26.2v-1.2H28.01a.6.6,0,0,0,.6-.6V10.2h1.2V12.01a.6.6,0,0,0,.6.6h1.806Z" transform="translate(-9.059 -2.707)" fill="#dda601"/>
      <path id="Path_1349" data-name="Path 1349" d="M49.091,16.564a2.756,2.756,0,0,0,.018-.319,2.42,2.42,0,0,0-1.914-2.354,2.451,2.451,0,0,0-2.829,1.788L41.717,23.3a.982.982,0,0,0-.114.054l-5.322,3.118A5.428,5.428,0,0,0,33.6,31.144v5.671a.6.6,0,0,0-.6.6v4.816a.6.6,0,0,0,.6.6H42.03a.6.6,0,0,0,.6-.6V37.417a.6.6,0,0,0-.6-.6V35.491a1.829,1.829,0,0,1,.6-1.348L46.7,30.524a2.968,2.968,0,0,0,.915-1.475l2.613-9.77a2.381,2.381,0,0,0,.084-.626,2.419,2.419,0,0,0-1.222-2.089Zm-3.576-.53a1.272,1.272,0,0,1,1.433-.963,1.2,1.2,0,0,1,.957,1.174v.012A2.468,2.468,0,0,0,45.564,18.1l-1.68,5.183a2.528,2.528,0,0,0-.807-.229Zm-4.088,25.6H34.2V38.019h7.224Zm7.639-22.665-2.619,9.776a1.8,1.8,0,0,1-.542.879l-4.075,3.618a3.044,3.044,0,0,0-1.005,2.251v1.324h-6.02V31.144a4.245,4.245,0,0,1,2.083-3.636L42.2,24.4a1.2,1.2,0,0,1,1.649.439,1.24,1.24,0,0,1,.12.915,1.2,1.2,0,0,1-.566.728l-3.449,1.993a.6.6,0,0,0,.6,1.041L44.01,27.52a2.377,2.377,0,0,0,1.126-1.463,2.412,2.412,0,0,0-.241-1.824l-.036-.054,1.86-5.737a1.272,1.272,0,0,1,1.433-.963,1.2,1.2,0,0,1,.957,1.174A1.037,1.037,0,0,1,49.067,18.966Z" transform="translate(-12.243 -4.636)" fill="#dda601"/>
      <path id="Path_1350" data-name="Path 1350" d="M18.951,36.816V31.146a5.428,5.428,0,0,0-2.679-4.671L10.951,23.35c-.036-.018-.078-.03-.114-.048L8.206,15.723a2.472,2.472,0,0,0-2.847-1.83,2.42,2.42,0,0,0-1.914,2.354,2.756,2.756,0,0,0,.018.319A2.419,2.419,0,0,0,2.24,18.654a2.661,2.661,0,0,0,.078.626l2.619,9.764a2.959,2.959,0,0,0,.915,1.481l4.063,3.618a1.813,1.813,0,0,1,.608,1.348v1.324a.6.6,0,0,0-.6.6v4.816a.6.6,0,0,0,.6.6h8.428a.6.6,0,0,0,.6-.6V37.418A.6.6,0,0,0,18.951,36.816Zm-14.3-20.57A1.2,1.2,0,0,1,5.6,15.072a1.3,1.3,0,0,1,1.457,1.005l2.42,6.977a2.528,2.528,0,0,0-.807.229L7,18.131a2.5,2.5,0,0,0-2.354-1.872Zm6.068,16.994L6.647,29.623a1.785,1.785,0,0,1-.542-.885L3.48,18.967a1.277,1.277,0,0,1-.036-.313A1.2,1.2,0,0,1,4.4,17.48a1.291,1.291,0,0,1,1.451.993l1.848,5.707-.036.054a2.412,2.412,0,0,0-.241,1.824,2.377,2.377,0,0,0,1.126,1.463l3.449,1.993a.6.6,0,0,0,.6-1.041L9.145,26.48a1.2,1.2,0,0,1-.566-.728,1.24,1.24,0,0,1,.12-.915,1.2,1.2,0,0,1,1.643-.445l5.322,3.118a4.245,4.245,0,0,1,2.083,3.636v5.671h-6.02V35.492A3.028,3.028,0,0,0,10.716,33.241Zm7.633,8.392H11.125V38.02h7.224Z" transform="translate(0 -4.638)" fill="#dda601"/>
      <path id="Path_1351" data-name="Path 1351" d="M33.723,3.965a6.016,6.016,0,0,0-8.516,0h0a6.019,6.019,0,1,0-8.516,8.509l8.091,8.091a.6.6,0,0,0,.851,0l8.091-8.091a6.024,6.024,0,0,0,0-8.509ZM25.206,19.288l-7.665-7.665A4.816,4.816,0,0,1,20.95,3.4a4.765,4.765,0,0,1,3.4,1.413l.427.427a.6.6,0,0,0,.851,0l.429-.429a4.814,4.814,0,0,1,6.811,6.806Z" transform="translate(-5.051 0)" fill="#dda601"/>
    </g>
    <rect id="Rectangle_319" data-name="Rectangle 319" width="40" height="40" transform="translate(59 395)" fill="none"/>
  </g>
</svg>
