<svg xmlns="http://www.w3.org/2000/svg" width="40" height="40" viewBox="0 0 40 40">
  <g id="icon-airlines" transform="translate(-317 -308)">
    <path id="airplane" d="M4.615,16.871a.677.677,0,0,0-.332.887l1.523,3.269a.676.676,0,0,0,.893.332L18.2,15.985l-1.042,10.9a.677.677,0,0,0,.223.569,2.954,2.954,0,0,0,1.787.677,2.176,2.176,0,0,0,.534-.067,3.439,3.439,0,0,0,2.152-2.5l4.528-13.407,8.967-4.183c2.639-1.232,4-3.729,3.086-5.678A3.426,3.426,0,0,0,35.793.446a6.273,6.273,0,0,0-3.7.569L21.75,5.867,10.625,1.516a3.434,3.434,0,0,0-3.289.048A2.76,2.76,0,0,0,6.327,3.749a.677.677,0,0,0,.291.535l7.492,5.15-4.29,2.03L2.625,9.637a.677.677,0,0,0-.751.325L.081,13.19a.677.677,0,0,0,.352.954l5.326,2.2Zm3.1-13.46A1.158,1.158,0,0,1,8.12,2.68c.386-.278,1.09-.237,2.03.115l9.908,3.864L15.538,8.771ZM1.624,13.183,2.8,11.092l6.923,1.719a.678.678,0,0,0,.447-.04l22.5-10.51a4.947,4.947,0,0,1,2.89-.46,2.12,2.12,0,0,1,1.651,1.069c.568,1.218-.548,3-2.437,3.878l-7.8,3.655L27.456,9a.688.688,0,1,0-1.306-.433L20.58,25.141c-.332.941-.745,1.5-1.2,1.624a1.145,1.145,0,0,1-.826-.155L19.9,12.4a.68.68,0,0,0-1.354-.128l-.21,2.172L6.726,19.856l-.954-2.03,1.908-.893a.677.677,0,0,0,0-1.239Zm0,0" transform="translate(318.001 313.624)" fill="#dda601"/>
    <rect id="Rectangle_319" data-name="Rectangle 319" width="40" height="40" transform="translate(317 308)" fill="none"/>
  </g>
</svg>
