<svg xmlns="http://www.w3.org/2000/svg" width="14.01" height="25.3" viewBox="0 0 14.01 25.3">
  <g id="icon-Smartphone" transform="translate(-119.85 -7.85)">
    <path id="Path_1341" data-name="Path 1341" d="M131.694,8h-9.677A2.018,2.018,0,0,0,120,10.016V30.984A2.018,2.018,0,0,0,122.016,33h9.677a2.018,2.018,0,0,0,2.016-2.016V10.016A2.018,2.018,0,0,0,131.694,8Zm-2.1.806-.242,1.21h-4.984l-.242-1.21ZM132.9,30.984a1.211,1.211,0,0,1-1.21,1.21h-9.677a1.211,1.211,0,0,1-1.21-1.21V10.016a1.211,1.211,0,0,1,1.21-1.21H123.3l.338,1.692a.4.4,0,0,0,.4.324h5.645a.4.4,0,0,0,.4-.324l.338-1.692h1.282a1.211,1.211,0,0,1,1.21,1.21Z" transform="translate(0)" fill="#fff" stroke="#fff" stroke-width="0.3"/>
    <path id="Path_1342" data-name="Path 1342" d="M154.823,456H152.4a.4.4,0,1,0,0,.806h2.419a.4.4,0,1,0,0-.806Z" transform="translate(-30.387 -425.419)" fill="#fff" stroke="#fff" stroke-width="0.3"/>
    <path id="Path_1343" data-name="Path 1343" d="M224.806,456h-.4a.4.4,0,1,0,0,.806h.4a.4.4,0,1,0,0-.806Z" transform="translate(-98.758 -425.419)" fill="#fff" stroke="#fff" stroke-width="0.3"/>
  </g>
</svg>
