<svg xmlns="http://www.w3.org/2000/svg" width="40" height="40" viewBox="0 0 40 40">
  <g id="icon-topup" transform="translate(-59 -308)">
    <g id="Smartphone" transform="translate(-51 302)">
      <path id="Path_1341" data-name="Path 1341" d="M137.306,8H122.984A2.987,2.987,0,0,0,120,10.984V42.016A2.987,2.987,0,0,0,122.984,45h14.323a2.987,2.987,0,0,0,2.984-2.984V10.984A2.987,2.987,0,0,0,137.306,8Zm-3.115,1.194-.358,1.79h-7.376l-.358-1.79ZM139.1,42.016a1.792,1.792,0,0,1-1.79,1.79H122.984a1.792,1.792,0,0,1-1.79-1.79V10.984a1.792,1.792,0,0,1,1.79-1.79h1.9l.5,2.5a.6.6,0,0,0,.585.48h8.355a.6.6,0,0,0,.585-.48l.5-2.5h1.9a1.792,1.792,0,0,1,1.79,1.79Z" transform="translate(0 0)" fill="#dda601" stroke="#dda601" stroke-width="0.3"/>
      <path id="Path_1342" data-name="Path 1342" d="M156.177,456H152.6a.6.6,0,1,0,0,1.194h3.581a.6.6,0,0,0,0-1.194Z" transform="translate(-29.613 -414.581)" fill="#dda601" stroke="#dda601" stroke-width="0.3"/>
      <path id="Path_1343" data-name="Path 1343" d="M225.194,456h-.6a.6.6,0,0,0,0,1.194h.6a.6.6,0,1,0,0-1.194Z" transform="translate(-96.242 -414.581)" fill="#dda601" stroke="#dda601" stroke-width="0.3"/>
    </g>
    <rect id="Rectangle_319" data-name="Rectangle 319" width="40" height="40" transform="translate(59 308)" fill="none"/>
  </g>
</svg>
