<svg width="105" height="95" viewBox="0 0 105 95" fill="none" xmlns="http://www.w3.org/2000/svg">
<path d="M0 48.3171C0 46.5334 0 44.7519 0 42.9682C0.0535585 42.6824 0.136128 42.4011 0.156212 42.1132C0.4307 38.001 1.2921 34.0072 2.69355 30.1407C10.6715 8.15576 33.8467 -4.23195 56.5734 1.32232C80.0186 7.05295 95.0463 30.5135 90.4492 54.1995C88.6862 63.2832 84.5711 71.1391 78.0682 77.7047C71.2507 84.5895 63.0584 88.9226 53.4893 90.5724C51.771 90.8693 50.0303 91.0434 48.2986 91.2756C46.5156 91.2756 44.7347 91.2756 42.9517 91.2756C41.7489 91.1327 40.5416 91.0099 39.341 90.8403C30.3454 89.57 22.3897 85.9758 15.5811 79.9617C7.56291 72.8782 2.54626 64.0646 0.700724 53.4941C0.401689 51.7796 0.229855 50.0427 0 48.3171ZM15.2195 71.9182C16.5518 66.8306 18.8883 62.4126 22.3272 58.6018C25.7795 54.7799 29.9526 51.9849 34.8309 50.1231C24.2107 42.4949 24.4628 28.8436 31.3853 21.3159C38.5019 13.5783 50.5213 12.8282 58.2404 19.742C62.418 23.4814 64.7054 28.1605 64.7879 33.7594C64.8906 40.5795 61.9694 45.982 56.406 50.1052C61.3312 51.9738 65.4686 54.771 68.903 58.5884C72.3509 62.4193 74.6851 66.8573 76.0218 71.8892C88.1149 58.4835 90.5473 34.8645 75.1337 18.3088C59.4656 1.47412 33.6972 0.911551 17.3686 17.0006C1.15374 32.9781 2.2807 57.3026 15.2195 71.9182ZM46.3303 85.9312C47.2408 85.8575 48.9034 85.7704 50.5503 85.5762C58.2025 84.6676 64.9932 81.703 70.974 76.8698C71.2016 76.6845 71.3578 76.2291 71.3221 75.9254C71.0275 73.3693 70.2755 70.9404 69.1887 68.6143C64.8973 59.4323 55.8035 53.5342 45.5069 53.5744C39.9792 53.5967 34.9157 55.2376 30.4547 58.517C24.5008 62.8948 20.9481 68.7616 19.8948 76.0996C19.8613 76.3407 20.0621 76.709 20.2697 76.8765C27.6563 82.8192 36.1074 85.8039 46.3303 85.9312ZM45.6452 48.0358C53.2706 48.0112 59.4633 41.8296 59.4923 34.2148C59.5214 26.609 53.2305 20.3202 45.6073 20.3314C37.9774 20.3448 31.6843 26.6715 31.7602 34.2528C31.8383 41.8944 38.0489 48.0603 45.6452 48.0358Z" fill="#3462B5"/>
<circle cx="82.925" cy="72.5359" r="22.075" fill="#3462B5"/>
<path d="M91.1488 61.779C91.0357 61.779 90.9225 61.7505 90.8235 61.6933C88.1082 60.2792 85.7605 59.6793 82.9462 59.6793C80.146 59.6793 77.4872 60.3507 75.0688 61.6933C74.7294 61.879 74.3051 61.7505 74.1071 61.4077C73.9233 61.0648 74.0506 60.6221 74.39 60.4364C77.0205 58.9937 79.9055 58.2509 82.9462 58.2509C85.9585 58.2509 88.589 58.9223 91.4741 60.4221C91.8276 60.6078 91.9549 61.0363 91.7711 61.3791C91.6438 61.6362 91.4034 61.779 91.1488 61.779ZM70.9109 69.2781C70.7695 69.2781 70.6281 69.2352 70.5008 69.1495C70.1755 68.921 70.1048 68.4782 70.3311 68.1496C71.7312 66.1499 73.5131 64.5787 75.6345 63.4788C80.0752 61.1648 85.7605 61.1506 90.2154 63.4645C92.3368 64.5644 94.1187 66.1213 95.5188 68.1068C95.7451 68.421 95.6744 68.8781 95.3491 69.1067C95.0238 69.3352 94.5854 69.2638 94.3591 68.9353C93.0863 67.1355 91.4741 65.7214 89.5648 64.7358C85.506 62.6361 80.3157 62.6361 76.2709 64.7501C74.3476 65.75 72.7353 67.1783 71.4625 68.9781C71.3493 69.1781 71.1372 69.2781 70.9109 69.2781ZM79.75 86.5187C79.5661 86.5187 79.3823 86.4473 79.255 86.3044C78.0246 85.0617 77.3599 84.2618 76.4124 82.5335C75.4365 80.7766 74.9274 78.634 74.9274 76.3343C74.9274 72.092 78.5196 68.6353 82.932 68.6353C87.3445 68.6353 90.9367 72.092 90.9367 76.3343C90.9367 76.7342 90.6255 77.0485 90.2295 77.0485C89.8335 77.0485 89.5224 76.7342 89.5224 76.3343C89.5224 72.8776 86.5666 70.0637 82.932 70.0637C79.2974 70.0637 76.3416 72.8776 76.3416 76.3343C76.3416 78.3912 76.7942 80.2909 77.6569 81.8336C78.562 83.4762 79.1843 84.1761 80.2732 85.2903C80.542 85.5759 80.542 86.0187 80.2732 86.3044C80.1177 86.4473 79.9338 86.5187 79.75 86.5187ZM89.8901 83.8762C88.2072 83.8762 86.7222 83.4476 85.506 82.6049C83.3987 81.1622 82.14 78.8197 82.14 76.3343C82.14 75.9343 82.4512 75.6201 82.8472 75.6201C83.2432 75.6201 83.5543 75.9343 83.5543 76.3343C83.5543 78.3483 84.5726 80.2481 86.2979 81.4193C87.302 82.105 88.4759 82.4335 89.8901 82.4335C90.2295 82.4335 90.7952 82.3906 91.3609 82.2907C91.7428 82.2192 92.1105 82.4763 92.1812 82.8763C92.2519 83.262 91.9973 83.6333 91.6014 83.7048C90.7952 83.8619 90.0881 83.8762 89.8901 83.8762ZM87.0475 86.8186C86.9909 86.8186 86.9202 86.8044 86.8636 86.7901C84.615 86.1616 83.1442 85.3188 81.6026 83.7905C79.6227 81.805 78.5337 79.1625 78.5337 76.3343C78.5337 74.0203 80.4854 72.1348 82.8896 72.1348C85.2938 72.1348 87.2455 74.0203 87.2455 76.3343C87.2455 77.8627 88.5607 79.1054 90.1871 79.1054C91.8135 79.1054 93.1287 77.8627 93.1287 76.3343C93.1287 70.9493 88.5324 66.5784 82.8755 66.5784C78.859 66.5784 75.182 68.8353 73.5273 72.3348C72.9757 73.4918 72.6929 74.8488 72.6929 76.3343C72.6929 77.4484 72.7919 79.2053 73.6404 81.4908C73.7819 81.8621 73.598 82.2764 73.2303 82.4049C72.8626 82.5478 72.4525 82.3478 72.3252 81.9907C71.6322 80.1195 71.2928 78.2626 71.2928 76.3343C71.2928 74.6202 71.6181 73.0633 72.2545 71.7063C74.1354 67.7211 78.3074 65.1357 82.8755 65.1357C89.3103 65.1357 94.543 70.1494 94.543 76.32C94.543 78.634 92.5913 80.5195 90.1871 80.5195C87.7829 80.5195 85.8312 78.634 85.8312 76.32C85.8312 74.7916 84.516 73.5489 82.8896 73.5489C81.2632 73.5489 79.948 74.7916 79.948 76.32C79.948 78.7625 80.8814 81.048 82.5926 82.762C83.9361 84.1047 85.2231 84.8475 87.2172 85.4045C87.599 85.5045 87.8112 85.9045 87.7122 86.2759C87.6415 86.6044 87.3445 86.8186 87.0475 86.8186Z" fill="white"/>
</svg>
