<svg width="16" height="19" viewBox="0 0 16 19" fill="none" xmlns="http://www.w3.org/2000/svg">
<path d="M15 1.99839L10.9965 1.99841V0.877085C10.9965 0.566231 10.7728 0.314453 10.4965 0.314453C10.2203 0.314453 9.9965 0.566231 9.9965 0.877085V1.99813H5.9965V0.877085C5.9965 0.566231 5.77275 0.314453 5.4965 0.314453C5.22025 0.314453 4.9965 0.566231 4.9965 0.877085V1.99813H1C0.44775 1.99813 0 2.50197 0 3.12339V17.1892C0 17.8106 0.44775 18.3145 1 18.3145H15C15.5523 18.3145 16 17.8106 16 17.1892V3.12339C16 2.50223 15.5523 1.99839 15 1.99839ZM15 17.1892H1V3.12339H4.9965V3.69024C4.9965 4.00108 5.22025 4.25288 5.4965 4.25288C5.77275 4.25288 5.9965 4.00108 5.9965 3.69024V3.12367H9.9965V3.69053C9.9965 4.00138 10.2203 4.25316 10.4965 4.25316C10.7728 4.25316 10.9965 4.00138 10.9965 3.69053V3.12367H15V17.1892ZM11.5 9.31261H12.5C12.776 9.31261 13 9.06055 13 8.74997V7.62471C13 7.31414 12.776 7.06208 12.5 7.06208H11.5C11.224 7.06208 11 7.31414 11 7.62471V8.74997C11 9.06055 11.224 9.31261 11.5 9.31261ZM11.5 13.8134H12.5C12.776 13.8134 13 13.5616 13 13.2507V12.1255C13 11.8149 12.776 11.5629 12.5 11.5629H11.5C11.224 11.5629 11 11.8149 11 12.1255V13.2507C11 13.5619 11.224 13.8134 11.5 13.8134ZM8.5 11.5629H7.5C7.224 11.5629 7 11.8149 7 12.1255V13.2507C7 13.5616 7.224 13.8134 7.5 13.8134H8.5C8.776 13.8134 9 13.5616 9 13.2507V12.1255C9 11.8152 8.776 11.5629 8.5 11.5629ZM8.5 7.06208H7.5C7.224 7.06208 7 7.31414 7 7.62471V8.74997C7 9.06055 7.224 9.31261 7.5 9.31261H8.5C8.776 9.31261 9 9.06055 9 8.74997V7.62471C9 7.31386 8.776 7.06208 8.5 7.06208ZM4.5 7.06208H3.5C3.224 7.06208 3 7.31414 3 7.62471V8.74997C3 9.06055 3.224 9.31261 3.5 9.31261H4.5C4.776 9.31261 5 9.06055 5 8.74997V7.62471C5 7.31386 4.776 7.06208 4.5 7.06208ZM4.5 11.5629H3.5C3.224 11.5629 3 11.8149 3 12.1255V13.2507C3 13.5616 3.224 13.8134 3.5 13.8134H4.5C4.776 13.8134 5 13.5616 5 13.2507V12.1255C5 11.8152 4.776 11.5629 4.5 11.5629Z" fill="#3462B5"/>
</svg>
