<svg width="20" height="18" viewBox="0 0 20 18" fill="none" xmlns="http://www.w3.org/2000/svg">
<path fill-rule="evenodd" clip-rule="evenodd" d="M6.92308 1.63636C5.64857 1.63636 4.61538 2.7353 4.61538 4.09091C4.61538 5.44652 5.64857 6.54545 6.92308 6.54545C8.19759 6.54545 9.23077 5.44652 9.23077 4.09091C9.23077 2.7353 8.19759 1.63636 6.92308 1.63636ZM3.07692 4.90909C3.10263 4.90909 3.12805 4.90775 3.15311 4.90513C3.50803 6.77438 5.06103 8.18182 6.92308 8.18182C8.78512 8.18182 10.3381 6.77438 10.693 4.90513C10.7181 4.90775 10.7435 4.90909 10.7692 4.90909H19.2308C19.6555 4.90909 20 4.54277 20 4.09091C20 3.63904 19.6555 3.27273 19.2308 3.27273H10.7692C10.7435 3.27273 10.7181 3.27407 10.693 3.27669C10.3381 1.40742 8.78512 0 6.92308 0C5.06103 0 3.50803 1.40742 3.15311 3.27669C3.12805 3.27407 3.10263 3.27273 3.07692 3.27273H0.769231C0.3444 3.27273 0 3.63904 0 4.09091C0 4.54277 0.3444 4.90909 0.769231 4.90909H3.07692ZM16.8469 14.7233C16.492 16.5926 14.9389 18 13.0769 18C11.2149 18 9.66188 16.5926 9.30695 14.7233C9.28189 14.726 9.25648 14.7273 9.23077 14.7273H0.769231C0.3444 14.7273 0 14.3609 0 13.9091C0 13.4573 0.3444 13.0909 0.769231 13.0909H9.23077C9.25648 13.0909 9.28189 13.0922 9.30695 13.0948C9.66188 11.2256 11.2149 9.81818 13.0769 9.81818C14.9389 9.81818 16.492 11.2256 16.8469 13.0948C16.872 13.0922 16.8974 13.0909 16.9231 13.0909H19.2308C19.6555 13.0909 20 13.4573 20 13.9091C20 14.3609 19.6555 14.7273 19.2308 14.7273H16.9231C16.8974 14.7273 16.872 14.726 16.8469 14.7233ZM10.7692 13.9091C10.7692 12.5535 11.8024 11.4545 13.0769 11.4545C14.3514 11.4545 15.3846 12.5535 15.3846 13.9091C15.3846 15.2647 14.3514 16.3636 13.0769 16.3636C11.8024 16.3636 10.7692 15.2647 10.7692 13.9091Z" fill="#3462B5"/>
</svg>
