<svg width="30" height="30" viewBox="0 0 30 30" fill="none" xmlns="http://www.w3.org/2000/svg">
<g clip-path="url(#clip0_13_3275)">
<path d="M29.7261 24.1013L20.6248 15.0001L29.7261 5.8988C29.9004 5.72227 29.9982 5.48413 29.9982 5.23599C29.9982 4.98785 29.9004 4.7497 29.7261 4.57318L25.4267 0.273801C25.3398 0.186553 25.2365 0.117324 25.1227 0.0700877C25.009 0.0228509 24.887 -0.00146484 24.7639 -0.00146484C24.6407 -0.00146484 24.5188 0.0228509 24.405 0.0700877C24.2913 0.117324 24.188 0.186553 24.1011 0.273801L14.9998 9.37505L5.89856 0.273801C5.72275 0.0980472 5.48434 -0.000685933 5.23574 -0.000685933C4.98715 -0.000685933 4.74874 0.0980472 4.57293 0.273801L0.273557 4.57318C0.186309 4.6601 0.11708 4.7634 0.0698436 4.87714C0.0226068 4.99088 -0.00170898 5.11283 -0.00170898 5.23599C-0.00170898 5.35915 0.0226068 5.4811 0.0698436 5.59484C0.11708 5.70858 0.186309 5.81188 0.273557 5.8988L9.37481 15.0001L0.273557 24.1013C0.0978031 24.2771 -0.000930074 24.5155 -0.000930074 24.7641C-0.000930074 25.0127 0.0978031 25.2511 0.273557 25.4269L4.57293 29.7263C4.65986 29.8135 4.76315 29.8828 4.87689 29.93C4.99064 29.9773 5.11258 30.0016 5.23574 30.0016C5.3589 30.0016 5.48085 29.9773 5.59459 29.93C5.70834 29.8828 5.81163 29.8135 5.89856 29.7263L14.9998 20.625L24.1011 29.7263C24.2769 29.9021 24.5153 30.0008 24.7639 30.0008C25.0125 30.0008 25.2509 29.9021 25.4267 29.7263L29.7261 25.4269C29.8133 25.34 29.8825 25.2367 29.9298 25.123C29.977 25.0092 30.0013 24.8873 30.0013 24.7641C30.0013 24.641 29.977 24.519 29.9298 24.4053C29.8825 24.2915 29.8133 24.1882 29.7261 24.1013Z" fill="white"/>
</g>
<defs>
<clipPath id="clip0_13_3275">
<rect width="30" height="30" fill="white"/>
</clipPath>
</defs>
</svg>
