<svg width="25" height="30" viewBox="0 0 25 30" fill="none" xmlns="http://www.w3.org/2000/svg">
<path fill-rule="evenodd" clip-rule="evenodd" d="M24.6875 7.37143L17.8542 0.3L17.125 0H1.04167L0 1.07143V12.8571H2.08333V2.14286H14.5833V9.64286L15.625 10.7143H22.9167V12.8571H25V8.14286L24.6875 7.37143ZM16.6667 8.57143V2.14286L22.9167 8.57143H16.6667ZM1.04167 15L0 16.0714V28.9286L1.04167 30H23.9583L25 28.9286V16.0714L23.9583 15H1.04167ZM22.9167 25.7143V27.8571H2.08333V17.1429H22.9167V25.7143ZM6.25 23.5714H5.58333V25.7143H4.16667V19.2857H6.375C7.9375 19.2857 8.72917 20.0571 8.72917 21.4286C8.7332 21.72 8.67568 22.0089 8.56058 22.2753C8.44548 22.5417 8.27554 22.7792 8.0625 22.9714C7.54621 23.3854 6.9041 23.5979 6.25 23.5714ZM6.125 20.4643H5.58333V22.4571H6.125C6.875 22.4571 7.25 22.1143 7.25 21.45C7.25 20.7857 6.875 20.4643 6.125 20.4643ZM14.5833 24.8143C14.891 24.5026 15.1316 24.1279 15.2895 23.7144C15.4474 23.301 15.5191 22.858 15.5 22.4143C15.5 20.2714 14.3958 19.2857 12.1667 19.2857H9.95833V25.7143H12.1667C12.6073 25.7362 13.0479 25.668 13.4627 25.5135C13.8776 25.359 14.2585 25.1213 14.5833 24.8143ZM11.3542 24.5357V20.4643H12.0417C12.3074 20.4469 12.5738 20.4855 12.8245 20.5776C13.0752 20.6697 13.3051 20.8134 13.5 21C13.6766 21.1907 13.8138 21.4163 13.9033 21.663C13.9928 21.9098 14.0328 22.1726 14.0208 22.4357C14.052 23.0006 13.8648 23.5552 13.5 23.9786C13.3093 24.1663 13.0836 24.3124 12.8366 24.4082C12.5895 24.5039 12.3262 24.5473 12.0625 24.5357H11.3542ZM20.625 23.2286H18.6042V25.7143H17.1875V19.2857H20.8125V20.4643H18.6042V22.05H20.625V23.2286Z" fill="white"/>
</svg>
