<svg width="80" height="80" viewBox="0 0 80 80" fill="none" xmlns="http://www.w3.org/2000/svg">
<path d="M40 3.07693C19.5384 3.07693 3.0769 19.5385 3.0769 40C3.0769 60.4615 19.5384 76.9231 40 76.9231C60.4615 76.9231 76.9231 60.4615 76.9231 40C76.9231 19.5385 60.4615 3.07693 40 3.07693ZM60.6154 30.7692L37.0769 54.6154C36.1538 55.5385 34.6154 55.5385 33.6923 54.6154L20.7692 41.5385C19.8461 40.6154 19.8461 39.0769 20.7692 38.1539L24.1538 34.7692C25.0769 33.8462 26.6154 33.8462 27.5384 34.7692L34.3077 41.6923C34.9231 42.3077 36 42.3077 36.6154 41.6923L53.8461 23.8462C54.7692 22.9231 56.3077 22.9231 57.2308 23.8462L60.6154 27.2308C61.6923 28.1539 61.6923 29.6923 60.6154 30.7692Z" fill="#32C993"/>
</svg>
