<svg width="25" height="27" viewBox="0 0 25 27" fill="none" xmlns="http://www.w3.org/2000/svg">
<path d="M5.47072 4.14505L5.47152 4.14462C7.63429 2.98181 10.0125 2.4 12.5192 2.4C15.0362 2.4 17.1342 2.91825 19.5676 4.14508C19.6801 4.20722 19.8066 4.2375 19.9318 4.2375C20.217 4.2375 20.4854 4.08215 20.6266 3.80795C20.8333 3.43179 20.6859 2.96572 20.2937 2.7663L20.2932 2.76602C17.6667 1.4438 15.2666 0.85 12.5192 0.85C9.74709 0.85 7.11571 1.50591 4.71668 2.78002C4.33641 2.98158 4.19313 3.46127 4.40021 3.83517L4.40014 3.83521L4.4026 3.83933C4.6212 4.20585 5.09125 4.34608 5.47072 4.14505ZM1.18805 10.6615L1.18803 10.6615L1.1905 10.6631C1.32929 10.7536 1.48545 10.8 1.64306 10.8C1.88591 10.8 2.13108 10.6962 2.26684 10.4702C3.40277 8.91661 4.84008 7.68443 6.55427 6.82148L6.55456 6.82133C10.1671 4.99292 14.8075 4.99276 18.4332 6.80911L18.4333 6.80917C20.1367 7.66067 21.575 8.88213 22.7113 10.4378C22.9656 10.7943 23.4542 10.8675 23.812 10.624C24.1758 10.3765 24.2569 9.88002 24.0018 9.53617C22.7225 7.77951 21.0938 6.40154 19.1556 5.42845C15.0872 3.38209 9.89955 3.39476 5.84427 5.44102C3.90551 6.41444 2.2767 7.80534 0.997504 9.57461L0.9975 9.57461L0.996826 9.57556C0.744802 9.9299 0.822915 10.4131 1.18805 10.6615ZM7.86968 21.5633L7.8692 21.5625C7.10476 20.2387 6.70073 18.6029 6.70073 16.825C6.70073 13.8941 9.2929 11.4875 12.5064 11.4875C15.7199 11.4875 18.3121 13.8941 18.3121 16.825C18.3121 17.261 18.6635 17.6 19.1011 17.6C19.5386 17.6 19.8901 17.261 19.8901 16.825C19.8901 13.0198 16.5665 9.9375 12.5064 9.9375C8.44626 9.9375 5.12269 13.0198 5.12269 16.825C5.12269 18.8596 5.58772 20.7609 6.48426 22.3242C7.34806 23.8499 7.9579 24.5609 9.07594 25.6546C9.223 25.8125 9.42996 25.8875 9.6308 25.8875C9.83571 25.8875 10.0368 25.8101 10.2033 25.6621L10.2036 25.6624L10.2113 25.6545C10.5106 25.3463 10.5106 24.8662 10.2113 24.558L10.2093 24.5559C9.23114 23.5869 8.67869 22.9851 7.86968 21.5633ZM15.6309 21.1499L15.6305 21.1497C14.111 20.1508 13.2187 18.5341 13.2187 16.825C13.2187 16.389 12.8672 16.05 12.4297 16.05C11.9922 16.05 11.6407 16.389 11.6407 16.825C11.6407 19.0532 12.8058 21.1487 14.7492 22.4373C15.8766 23.1937 17.2486 23.575 18.7943 23.575C18.9783 23.575 19.627 23.5623 20.3676 23.4226C20.802 23.3462 21.092 22.9469 21.0123 22.5231C20.9334 22.0909 20.5228 21.8132 20.0976 21.8898C19.5943 21.9759 19.0918 22.0125 18.7943 22.0125C17.5401 22.0125 16.5094 21.7308 15.6309 21.1499ZM16.0202 26.1198L16.0201 26.1198L16.0237 26.1207C16.0769 26.1337 16.1554 26.15 16.2255 26.15C16.5566 26.15 16.8898 25.9213 16.9718 25.5612C17.0806 25.1581 16.843 24.7262 16.417 24.6174C14.638 24.136 13.4982 23.4979 12.3041 22.3423C10.7868 20.8706 9.95973 18.9094 9.95973 16.8125C9.95973 15.5704 11.068 14.5375 12.4681 14.5375C13.8681 14.5375 14.9764 15.5704 14.9764 16.8125C14.9764 18.9298 16.817 20.6375 19.0627 20.6375C21.3085 20.6375 23.1491 18.9298 23.1491 16.8125C23.1491 11.3193 18.3425 6.875 12.4553 6.875C8.27431 6.875 4.44918 9.16631 2.72236 12.7093L2.72219 12.7096C2.136 13.92 1.83813 15.3053 1.83813 16.825C1.83813 18.5313 2.14838 20.1741 2.78068 21.8278C2.92502 22.2182 3.38143 22.4308 3.78954 22.2788C4.20179 22.1377 4.40766 21.6864 4.24952 21.2832C3.49135 19.3056 3.40339 17.7877 3.40339 16.825C3.40339 15.5444 3.65517 14.3802 4.14201 13.3912L4.14222 13.3908C5.61024 10.3842 8.87793 8.4375 12.4553 8.4375C17.4964 8.4375 21.5711 12.2067 21.5711 16.825C21.5711 18.0671 20.4628 19.1 19.0627 19.1C17.6627 19.1 16.5544 18.0671 16.5544 16.825C16.5544 14.7077 14.7138 13 12.4681 13C10.2223 13 8.38169 14.7077 8.38169 16.825C8.38169 19.341 9.3825 21.6922 11.2005 23.4576L11.2011 23.4582C12.6138 24.8145 13.9658 25.5638 16.0202 26.1198Z" fill="#3462B5" stroke="#3462B5" stroke-width="0.3"/>
</svg>
