<svg width="32" height="36" viewBox="0 0 32 36" fill="none" xmlns="http://www.w3.org/2000/svg">
<path d="M22.7892 27.6955H9.21084C8.87303 27.6955 8.59912 27.4628 8.59912 27.1756V7.92831C8.59912 7.64109 8.87294 7.4082 9.21084 7.4082C9.54865 7.4082 9.82247 7.64102 9.82247 7.92831V26.6555H22.1777V7.92831C22.1777 7.64109 22.4514 7.4082 22.7893 7.4082C23.1272 7.4082 23.401 7.64102 23.401 7.92831V27.1755C23.4009 27.4628 23.127 27.6955 22.7892 27.6955Z" fill="#3462B5" stroke="#3462B5" stroke-width="0.5" stroke-miterlimit="10"/>
<path d="M16 17.6824C14.3731 17.6824 12.8302 17.324 11.5376 16.6467C11.2502 16.4956 11.1609 16.1755 11.3382 15.9309C11.5157 15.6863 11.8925 15.6103 12.1798 15.761C13.2791 16.3375 14.6001 16.6423 16 16.6423C17.3389 16.6423 18.6135 16.3611 19.6863 15.8297C19.9776 15.6856 20.3524 15.7688 20.5228 16.0171C20.6929 16.2653 20.5943 16.5838 20.3023 16.7284C19.0429 17.3525 17.5551 17.6824 16 17.6824Z" fill="#3462B5" stroke="#3462B5" stroke-width="0.5" stroke-miterlimit="10"/>
<path d="M20.1388 9.40553C20.0295 9.40553 19.9186 9.38081 19.8185 9.32835C18.7195 8.75272 17.3989 8.44834 16 8.44834C14.6011 8.44834 13.2806 8.75272 12.1816 9.32843C11.8939 9.47919 11.5176 9.40321 11.3399 9.15818C11.1628 8.9136 11.2524 8.59341 11.5399 8.44265C12.8321 7.76578 14.3744 7.4082 16.0001 7.4082C17.6258 7.4082 19.168 7.76578 20.4603 8.44265C20.7477 8.59341 20.8373 8.91353 20.6603 9.15818C20.5445 9.31779 20.3441 9.40553 20.1388 9.40553Z" fill="#3462B5" stroke="#3462B5" stroke-width="0.5" stroke-miterlimit="10"/>
<path d="M19.2518 13.0646H18.7049C18.3671 13.0646 18.0933 12.8318 18.0933 12.5445C18.0933 12.2572 18.367 12.0244 18.7049 12.0244H19.2518C19.5896 12.0244 19.8635 12.2572 19.8635 12.5445C19.8635 12.8318 19.5896 13.0646 19.2518 13.0646Z" fill="#3462B5"/>
<path d="M17.3525 14.2975C17.0147 14.2975 16.7407 14.0647 16.7407 13.7774C16.7407 13.4902 17.0146 13.2573 17.3525 13.2573C17.761 13.2573 18.0934 12.9376 18.0934 12.5447C18.0934 12.1518 17.761 11.8321 17.3525 11.8321C16.9439 11.8321 16.6115 12.1518 16.6115 12.5447C16.6115 13.5112 15.7304 14.2974 14.6473 14.2974C13.5643 14.2974 12.6831 13.5112 12.6831 12.5447C12.6831 11.5782 13.5642 10.792 14.6473 10.792C14.9851 10.792 15.259 11.0248 15.259 11.3121C15.259 11.5993 14.9852 11.8322 14.6473 11.8322C14.2387 11.8322 13.9064 12.1519 13.9064 12.5448C13.9064 12.9377 14.2387 13.2574 14.6473 13.2574C15.0559 13.2574 15.3882 12.9377 15.3882 12.5448C15.3882 11.5783 16.2693 10.7921 17.3525 10.7921C18.4354 10.7921 19.3166 11.5783 19.3166 12.5448C19.3166 13.5113 18.4355 14.2975 17.3525 14.2975Z" fill="#3462B5"/>
<path d="M13.2949 13.0646H12.6746C12.3368 13.0646 12.063 12.8318 12.063 12.5445C12.063 12.2572 12.3367 12.0244 12.6746 12.0244H13.2949C13.6327 12.0244 13.9065 12.2572 13.9065 12.5445C13.9064 12.8318 13.6327 13.0646 13.2949 13.0646Z" fill="#3462B5"/>
<path d="M15.9999 22.5293C15.6621 22.5293 15.3882 22.2965 15.3882 22.0092V19.8599C15.3882 19.5727 15.662 19.3398 15.9999 19.3398C16.3377 19.3398 16.6116 19.5726 16.6116 19.8599V22.0092C16.6116 22.2965 16.3377 22.5293 15.9999 22.5293Z" fill="#3462B5" stroke="#3462B5" stroke-width="0.5" stroke-miterlimit="10"/>
<path d="M18.6078 25.1301H13.392C13.0542 25.1301 12.7804 24.8973 12.7804 24.61C12.7804 24.1789 12.368 23.8283 11.861 23.8283C11.5232 23.8283 11.2494 23.5956 11.2494 23.3083V19.4791C11.2494 19.1919 11.5231 18.959 11.861 18.959C12.1988 18.959 12.4727 19.1918 12.4727 19.4791V22.8639C13.1632 23.039 13.7089 23.5029 13.9148 24.09H18.085C18.2909 23.5029 18.8366 23.039 19.5271 22.8639V19.4791C19.5271 19.1919 19.8008 18.959 20.1387 18.959C20.4766 18.959 20.7505 19.1918 20.7505 19.4791V23.3083C20.7505 23.5955 20.4767 23.8283 20.1387 23.8283C19.6318 23.8283 19.2194 24.1789 19.2194 24.61C19.2193 24.8973 18.9456 25.1301 18.6078 25.1301Z" fill="#3462B5" stroke="#3462B5" stroke-width="0.5" stroke-miterlimit="10"/>
<path d="M28.2327 13.1298H25.083C24.7452 13.1298 24.4715 12.8971 24.4715 12.6098C24.4715 12.3226 24.7452 12.0897 25.083 12.0897H28.2327C28.9746 12.0897 29.5784 11.5766 29.5784 10.9456V3.35308C29.5784 2.72215 28.9746 2.20901 28.2327 2.20901H3.76717C3.02529 2.20901 2.4215 2.72215 2.4215 3.35308V10.9457C2.4215 11.5766 3.02529 12.0898 3.76717 12.0898H6.91716C7.25496 12.0898 7.52879 12.3226 7.52879 12.6099C7.52879 12.8971 7.25505 13.1299 6.91716 13.1299H3.76717C2.35064 13.1299 1.19824 12.15 1.19824 10.9458V3.35308C1.19824 2.14892 2.35064 1.16895 3.76717 1.16895H28.2328C29.6493 1.16895 30.8017 2.14892 30.8017 3.35308V10.9457C30.8016 12.1499 29.6492 13.1298 28.2327 13.1298Z" fill="#3462B5" stroke="#3462B5" stroke-width="0.5" stroke-miterlimit="10"/>
<path d="M25.8582 8.44943C25.7715 8.44943 25.6835 8.43407 25.5997 8.40073C25.2936 8.27889 25.1615 7.96927 25.3046 7.70925C25.401 7.53376 25.4499 7.34568 25.4499 7.14943C25.4499 6.41808 24.7504 5.82334 23.8902 5.82334H8.10982C7.24966 5.82334 6.55016 6.41808 6.55016 7.14943C6.55016 7.34568 6.59916 7.53376 6.6954 7.70925C6.83853 7.96927 6.70642 8.27889 6.40034 8.40073C6.09382 8.52264 5.73063 8.41009 5.58733 8.14963C5.41459 7.83514 5.3269 7.49876 5.3269 7.14935C5.3269 5.84477 6.57528 4.7832 8.10982 4.7832H23.8901C25.4247 4.7832 26.673 5.84477 26.673 7.14935C26.673 7.49876 26.5854 7.83514 26.4126 8.14963C26.3088 8.33853 26.0886 8.44943 25.8582 8.44943Z" fill="#3462B5" stroke="#3462B5" stroke-width="0.5" stroke-miterlimit="10"/>
<path d="M18.4465 31.3113H4.95977C4.62197 31.3113 4.34814 31.0785 4.34814 30.7912V19.0904C4.34814 18.8032 4.62188 18.5703 4.95977 18.5703C5.29758 18.5703 5.57149 18.8031 5.57149 19.0904V30.2713H18.4465C18.7843 30.2713 19.0582 30.5041 19.0582 30.7914C19.0582 31.0785 18.7844 31.3113 18.4465 31.3113Z" fill="#3462B5" stroke="#3462B5" stroke-width="0.5" stroke-miterlimit="10"/>
<path d="M6.74435 20.2022C6.58307 20.2022 6.42179 20.1482 6.30167 20.0409L4.95987 18.8441L3.6179 20.0409C3.38497 20.2494 2.99746 20.2571 2.75325 20.0585C2.50859 19.8606 2.49925 19.5311 2.73245 19.3235L4.51719 17.7316C4.63264 17.6284 4.79269 17.5703 4.95987 17.5703C5.12715 17.5703 5.28719 17.6284 5.40256 17.7316L7.18712 19.3235C7.42032 19.5315 7.41097 19.8606 7.16632 20.0588C7.04805 20.1547 6.89611 20.2022 6.74435 20.2022Z" fill="#3462B5" stroke="#3462B5" stroke-width="0.2" stroke-miterlimit="10"/>
<path d="M26.9081 34.8309H13.4215C13.0836 34.8309 12.8098 34.5981 12.8098 34.3108C12.8098 34.0236 13.0835 33.7908 13.4215 33.7908H26.2965V22.61C26.2965 22.3227 26.5702 22.0898 26.9081 22.0898C27.246 22.0898 27.5199 22.3227 27.5199 22.61V34.3108C27.5198 34.5981 27.2459 34.8309 26.9081 34.8309Z" fill="#3462B5" stroke="#3462B5" stroke-width="0.5" stroke-miterlimit="10"/>
<path d="M28.6927 22.7221C28.5314 22.7221 28.3701 22.6681 28.25 22.5608L26.9082 21.364L25.5665 22.5608C25.3336 22.7692 24.9461 22.777 24.7018 22.5787C24.4572 22.3804 24.4478 22.0514 24.6811 21.8434L26.4656 20.2515C26.6964 20.0451 27.1202 20.0451 27.3511 20.2515L29.1356 21.8434C29.3688 22.0514 29.3596 22.3804 29.1148 22.5787C28.9964 22.6746 28.8444 22.7221 28.6927 22.7221Z" fill="#3462B5" stroke="#3462B5" stroke-width="0.5" stroke-miterlimit="10"/>
</svg>
