<svg width="32" height="32" viewBox="0 0 32 32" fill="none" xmlns="http://www.w3.org/2000/svg">
<path d="M12 29.3334H20C26.6667 29.3334 29.3334 26.6667 29.3334 20.0001V12.0001C29.3334 5.33341 26.6667 2.66675 20 2.66675H12C5.33335 2.66675 2.66669 5.33341 2.66669 12.0001V20.0001C2.66669 26.6667 5.33335 29.3334 12 29.3334Z" stroke="#3462B5" stroke-width="1.5" stroke-linecap="round" stroke-linejoin="round"/>
<path d="M13.9333 21.7068L12.8 20.5601M21.7066 18.1468C20.9923 18.8639 20.0949 19.3711 19.1121 19.6133C18.1294 19.8555 17.099 19.8232 16.1333 19.5201L12.68 22.9601C12.44 23.2134 11.9466 23.3734 11.5866 23.3201L9.98664 23.1068C9.45331 23.0401 8.97331 22.5334 8.89331 22.0134L8.67998 20.4134C8.62664 20.0668 8.79998 19.5734 9.03998 19.3201L12.48 15.8801C11.8933 13.9734 12.3466 11.8134 13.8533 10.3068C16.0133 8.14677 19.5333 8.14677 21.7066 10.3068C23.8666 12.4534 23.8666 15.9734 21.7066 18.1468Z" stroke="#3462B5" stroke-width="1.5" stroke-miterlimit="10" stroke-linecap="round" stroke-linejoin="round"/>
<path d="M17.86 14.2666H17.8723" stroke="#3462B5" stroke-width="1.5" stroke-linecap="round" stroke-linejoin="round"/>
</svg>
