<svg width="31" height="31" viewBox="0 0 31 31" fill="none" xmlns="http://www.w3.org/2000/svg">
<g clip-path="url(#clip0_1082_277)">
<path d="M0 16.4036C0 15.798 0 15.1932 0 14.5876C0.0181903 14.4906 0.0462336 14.3951 0.0530549 14.2973C0.14628 12.9012 0.43884 11.5453 0.914819 10.2325C3.62441 2.76847 11.4955 -1.43727 19.2142 0.44845C27.177 2.39405 32.2809 10.3591 30.7196 18.4007C30.1208 21.4847 28.7232 24.1519 26.5146 26.3809C24.1991 28.7184 21.4168 30.1895 18.1668 30.7496C17.5832 30.8504 16.992 30.9096 16.4038 30.9884C15.7982 30.9884 15.1934 30.9884 14.5878 30.9884C14.1793 30.9399 13.7693 30.8982 13.3615 30.8406C10.3063 30.4093 7.60429 29.1891 5.29185 27.1472C2.56862 24.7423 0.864796 21.75 0.237989 18.1612C0.136427 17.5791 0.0780666 16.9895 0 16.4036ZM5.16907 24.4164C5.62155 22.6891 6.4151 21.1891 7.58307 19.8954C8.75558 18.5978 10.1729 17.6489 11.8297 17.0168C8.22276 14.4269 8.3084 9.79218 10.6595 7.23645C13.0765 4.60947 17.1587 4.35481 19.7804 6.70211C21.1992 7.97164 21.9761 9.56026 22.0042 11.4611C22.039 13.7766 21.0469 15.6108 19.1574 17.0107C20.8301 17.6451 22.2353 18.5948 23.4018 19.8908C24.5728 21.1914 25.3656 22.6982 25.8196 24.4065C29.9268 19.8552 30.7529 11.8363 25.5179 6.21552C20.1965 0.499989 11.4447 0.308992 5.89895 5.77138C0.391848 11.1959 0.774602 19.4542 5.16907 24.4164ZM15.7353 29.1739C16.0446 29.1489 16.6092 29.1193 17.1686 29.0534C19.7675 28.7449 22.0739 27.7384 24.1051 26.0975C24.1824 26.0346 24.2355 25.88 24.2234 25.7769C24.1233 24.9091 23.8679 24.0844 23.4988 23.2947C22.0413 20.1773 18.9527 18.1749 15.4557 18.1885C13.5783 18.1961 11.8585 18.7532 10.3434 19.8666C8.32129 21.3529 7.11467 23.3447 6.75693 25.836C6.74556 25.9179 6.81377 26.0429 6.88426 26.0998C9.393 28.1174 12.2633 29.1307 15.7353 29.1739ZM15.5027 16.3081C18.0925 16.2998 20.1957 14.201 20.2056 11.6158C20.2154 9.0335 18.0788 6.89842 15.4898 6.9022C12.8984 6.90675 10.7611 9.05472 10.7868 11.6286C10.8134 14.223 12.9227 16.3164 15.5027 16.3081Z" fill="#3462B5"/>
<path d="M15.7355 29.1737C12.2642 29.1298 9.39318 28.1172 6.88444 26.0988C6.81395 26.042 6.74574 25.9169 6.75711 25.8351C7.11485 23.3438 8.32071 21.3519 10.3436 19.8656C11.8587 18.7522 13.5785 18.1951 15.4558 18.1876C18.9529 18.1739 22.0415 20.1764 23.499 23.2937C23.8681 24.0835 24.1235 24.9089 24.2236 25.7759C24.2357 25.879 24.1834 26.0336 24.1053 26.0965C22.0741 27.7382 19.7677 28.744 17.1688 29.0525C16.6087 29.1199 16.0448 29.1487 15.7355 29.1737Z" fill="white"/>
</g>
<defs>
<clipPath id="clip0_1082_277">
<rect width="31" height="30.9886" fill="white"/>
</clipPath>
</defs>
</svg>
