<svg width="31" height="33" viewBox="0 0 31 33" fill="none" xmlns="http://www.w3.org/2000/svg">
<g clip-path="url(#clip0_1082_266)">
<path d="M0.00249638 14.4313C0.00249638 11.0964 -0.00555916 7.76272 0.00479796 4.42787C0.0128535 2.23659 1.44904 0.500935 3.58951 0.0870391C3.95201 0.0171167 4.33177 0.00583885 4.70348 0.00471107C10.1594 0.000199945 15.6141 -0.000927836 21.07 0.00245551C23.3589 0.00471107 25.0771 1.21482 25.603 3.22001C25.7192 3.66323 25.7526 4.1369 25.7526 4.59704C25.7629 9.59198 25.7641 14.5869 25.7491 19.5807C25.748 19.9563 25.8516 20.1085 26.2221 20.2145C29.19 21.057 31.2361 23.9362 30.9772 26.8662C30.6941 30.0646 28.3154 32.5559 25.1668 32.9483C22.3152 33.3036 19.5337 31.8228 18.3116 29.2774C18.1746 28.9921 18.025 28.9007 17.7051 28.9018C13.3125 28.9131 8.91882 28.9154 4.52625 28.9075C2.35126 28.9041 0.620471 27.5857 0.134837 25.5636C0.0370201 25.1576 0.00825033 24.7279 0.00709954 24.3095C-0.00210678 21.0164 0.00249638 17.7244 0.00249638 14.4313ZM23.9884 19.9236C23.9976 19.7882 24.008 19.7048 24.008 19.6225C24.0091 14.5452 24.0149 9.46792 24.0045 4.39065C24.0011 2.80837 22.8653 1.73134 21.2438 1.73134C15.6901 1.72909 10.1352 1.73022 4.58149 1.73134C2.87027 1.73134 1.78277 2.78807 1.78162 4.46847C1.77817 11.1212 1.77932 17.774 1.78277 24.4268C1.78277 24.6918 1.79428 24.9648 1.85757 25.2208C2.16138 26.441 3.15912 27.1775 4.56653 27.182C8.82906 27.1933 13.0916 27.1865 17.3541 27.1842C17.4496 27.1842 17.5451 27.1594 17.6706 27.1414C17.5313 25.2907 18.017 23.6385 19.2414 22.2321C20.4739 20.8134 22.0701 20.0724 23.9884 19.9236ZM29.2142 26.494C29.2372 23.8652 27.0587 21.6795 24.3901 21.6536C21.6592 21.6277 19.4394 23.758 19.4106 26.4331C19.3818 29.0485 21.5787 31.2476 24.2428 31.2702C26.9874 31.2927 29.19 29.1759 29.2142 26.494Z" fill="#3462B5"/>
<path d="M12.8719 7.96668C10.8476 7.96668 8.82453 7.96781 6.80029 7.96555C6.24791 7.96442 5.87966 7.71969 5.77724 7.30354C5.66331 6.8389 5.9441 6.37876 6.42398 6.27275C6.60351 6.23328 6.79339 6.2299 6.97981 6.2299C10.9132 6.22764 14.8455 6.22764 18.7789 6.22877C18.8652 6.22877 18.9515 6.22651 19.0366 6.2299C19.6489 6.25471 20.0286 6.60206 20.0137 7.1231C19.9987 7.62722 19.6213 7.96217 19.0297 7.96442C17.307 7.97006 15.5843 7.96668 13.8627 7.96668C13.5313 7.96668 13.2021 7.96668 12.8719 7.96668Z" fill="#3462B5"/>
<path d="M12.8708 12.8693C10.8753 12.8693 8.88097 12.8704 6.8855 12.867C6.70138 12.867 6.50804 12.858 6.33657 12.8027C5.943 12.6764 5.7255 12.3178 5.76233 11.9152C5.79916 11.5227 6.09491 11.2171 6.50919 11.1629C6.66455 11.1426 6.82451 11.1449 6.98217 11.1449C10.9144 11.1438 14.8478 11.1438 18.7801 11.1449C18.9239 11.1449 19.0678 11.1415 19.2105 11.155C19.6846 11.2035 20.0091 11.543 20.0172 11.9885C20.0252 12.4497 19.688 12.814 19.2013 12.8625C19.0735 12.8749 18.9435 12.8681 18.8134 12.8681C16.8318 12.8693 14.8513 12.8693 12.8708 12.8693Z" fill="#3462B5"/>
<path d="M12.8766 17.7697C10.8385 17.7697 8.80045 17.7708 6.7624 17.7686C6.21347 17.7675 5.85443 17.5114 5.77042 17.0795C5.67145 16.5731 6.01439 16.1198 6.54375 16.0634C6.6853 16.0487 6.8303 16.0521 6.97415 16.0521C10.9214 16.0521 14.8674 16.0521 18.8146 16.0521C18.9297 16.0521 19.0448 16.0498 19.1587 16.0577C19.6789 16.095 20.0241 16.4491 20.0126 16.9295C20.0011 17.4088 19.6444 17.7517 19.1196 17.7674C18.718 17.7799 18.3163 17.7708 17.9136 17.7708C16.2346 17.7697 14.5556 17.7697 12.8766 17.7697Z" fill="#3462B5"/>
<path d="M11.4653 20.9634C13.0442 20.9634 14.623 20.9589 16.2031 20.9656C16.8314 20.9679 17.2215 21.3987 17.1352 21.9615C17.0673 22.4024 16.7152 22.6731 16.1686 22.6742C14.5747 22.6799 12.982 22.6765 11.3882 22.6765C9.8231 22.6765 8.25917 22.681 6.6941 22.6731C6.10835 22.6697 5.74585 22.319 5.75505 21.8013C5.76311 21.3028 6.12216 20.9679 6.68604 20.9656C8.27874 20.96 9.87258 20.9634 11.4653 20.9634Z" fill="#3462B5"/>
<path d="M25.2072 25.1733C25.2072 25.5669 25.2072 25.9605 25.2072 26.353C25.2072 26.8086 25.0046 27.1323 24.5639 27.3003C24.0702 27.4898 23.5811 27.6883 23.0839 27.8642C22.5454 28.0548 22.0505 27.8473 21.8768 27.3804C21.6995 26.9056 21.9297 26.4612 22.4671 26.2402C23.4315 25.8421 23.4315 25.8421 23.4315 24.8361C23.4315 24.5124 23.4188 24.1888 23.4372 23.8673C23.4672 23.3677 23.8481 23.0068 24.3187 23.0068C24.7768 23.0068 25.1565 23.3373 25.191 23.8256C25.2233 24.2733 25.1979 24.7244 25.1979 25.1733C25.2014 25.1733 25.2037 25.1733 25.2072 25.1733Z" fill="#3462B5"/>
</g>
<defs>
<clipPath id="clip0_1082_266">
<rect width="31" height="33" fill="white"/>
</clipPath>
</defs>
</svg>
