<svg width="37" height="37" viewBox="0 0 37 37" fill="none" xmlns="http://www.w3.org/2000/svg">
<g clip-path="url(#clip0_929_2415)">
<rect width="37" height="37" fill="white"/>
<path d="M0 30.2797C0.224023 29.3041 0.867187 28.7043 1.71992 28.2273C3.29531 27.3529 4.83457 26.4062 6.40273 25.5102C7.1543 25.0766 7.66738 24.4695 7.9709 23.6529C8.77305 21.485 9.6041 19.3387 10.399 17.1707C10.9627 15.6242 12.0322 14.6703 13.6148 14.2367C15.6455 13.6875 17.6689 13.1166 19.7357 12.5457C19.7357 12.4012 19.7357 12.2639 19.7357 12.1193C19.7357 8.83125 19.7357 5.54316 19.7357 2.2623C19.7357 0.939844 20.0465 0.48457 21.2533 -0.00683594C26.0012 -0.00683594 30.7418 -0.00683594 35.4897 -0.00683594C36.2773 0.217187 36.7832 0.723047 37.0072 1.51074C37.0072 9.96582 37.0072 18.4209 37.0072 26.876C36.6387 28.0033 35.8293 28.3863 34.6803 28.3719C31.6234 28.3357 28.5594 28.3863 25.5025 28.343C24.7871 28.3357 24.3174 28.5236 23.9127 29.109C23.125 30.2363 22.0555 31.0168 20.8125 31.5805C19.8369 32.0213 18.8975 32.5344 17.958 33.0402C16.2236 33.9797 14.5037 34.948 12.9211 36.1404C12.4947 36.4584 12.0178 36.7113 11.5625 37.0004C8.2166 37.0004 4.86348 37.0004 1.51758 37.0004C0.729883 36.7764 0.224023 36.2705 0 35.4828C0 33.7484 0 32.0141 0 30.2797ZM13.8461 33.8785C16.2236 32.6211 18.5723 31.3781 20.9209 30.1424C21.5568 29.81 22.1061 29.3691 22.5686 28.8127C23.602 27.5697 24.6354 26.334 25.6688 25.0982C27.302 23.1398 28.9424 21.1814 30.5756 19.2158C30.9514 18.7678 30.9225 18.392 30.5105 18.0596C29.1447 16.9611 27.0924 17.0117 25.7916 18.1824C25.2713 18.6521 24.7582 19.1219 24.2451 19.5916C22.6986 21.0008 21.1521 22.4172 19.5984 23.8264C19.2732 24.1227 18.9264 24.1154 18.6734 23.8336C18.4205 23.559 18.4566 23.2121 18.7746 22.9086C19.0131 22.6846 19.2443 22.4605 19.4973 22.2582C19.6852 22.1064 19.743 21.9402 19.743 21.7018C19.7357 19.2086 19.7357 16.7154 19.7357 14.2223C19.7357 14.1066 19.7357 13.991 19.7357 13.832C19.5768 13.8682 19.4611 13.8971 19.3455 13.926C17.5389 14.4246 15.7395 14.9449 13.9256 15.4291C12.7477 15.7398 11.9744 16.448 11.5553 17.5898C10.7531 19.765 9.92207 21.933 9.11992 24.1082C8.72969 25.1705 8.05762 25.9799 7.0748 26.5436C6.95195 26.6086 6.84355 26.6881 6.73516 26.7531C9.13437 29.1668 11.5191 31.5516 13.8461 33.8785ZM26.2396 16.4553C24.9605 14.7064 24.9822 13.1094 26.2686 11.9098C27.3959 10.8547 29.1881 10.8113 30.3588 11.823C30.9586 12.3361 31.3271 12.9938 31.4211 13.7742C31.5512 14.8582 31.1754 15.7688 30.3732 16.5275C30.525 16.6143 30.6334 16.6865 30.749 16.7443C32.2811 17.5682 32.4111 19.0568 31.3633 20.2131C30.1637 21.5428 29.0508 22.9592 27.9018 24.3322C27.8295 24.4189 27.7645 24.5129 27.6777 24.6357C28.7762 24.6357 29.8312 24.6357 30.8791 24.6357C31.2115 23.4506 31.9197 22.6484 33.0977 22.316C33.3072 22.2582 33.2928 22.1209 33.2928 21.9619C33.2928 16.7877 33.2928 11.6062 33.2928 6.43203C33.2928 6.20801 33.2422 6.09961 33.0109 6.02734C31.9703 5.70937 31.2838 5.0084 30.9586 3.975C30.8936 3.76543 30.8068 3.69316 30.59 3.69316C29.0941 3.70039 27.6055 3.70039 26.1096 3.69316C25.8855 3.69316 25.8133 3.77266 25.741 3.98223C25.4158 5.00117 24.7438 5.69492 23.7176 6.02012C23.4863 6.09238 23.3996 6.18633 23.3996 6.43926C23.4068 10.3994 23.4068 14.3596 23.4068 18.3197C23.4068 18.4064 23.4213 18.4932 23.4357 18.616C24.4041 17.8645 25.1268 16.9178 26.2396 16.4553ZM25.582 27.1289C25.8061 27.1289 25.9217 27.1289 26.0373 27.1289C28.9857 27.1289 31.9414 27.1289 34.8898 27.1289C35.5836 27.1289 35.7643 26.9482 35.7643 26.2545C35.7643 18.2113 35.7643 10.1682 35.7643 2.11777C35.7643 1.40957 35.5836 1.22891 34.8609 1.22891C30.525 1.22891 26.1891 1.22891 21.8531 1.22891C21.1377 1.22891 20.957 1.40957 20.957 2.125C20.957 8.2459 20.957 14.3596 20.957 20.4805C20.957 20.5961 20.957 20.7117 20.957 20.9141C21.3256 20.5816 21.6146 20.2926 21.9254 20.0396C22.135 19.8734 22.1928 19.6783 22.1928 19.4182C22.1855 14.8654 22.1855 10.3127 22.1855 5.75996C22.1855 5.15293 22.3662 4.96504 22.966 4.91445C23.8693 4.84219 24.5631 4.14121 24.6426 3.22344C24.6932 2.64531 24.8883 2.46465 25.4664 2.46465C27.3959 2.46465 29.3182 2.46465 31.2477 2.46465C31.8258 2.46465 32.0209 2.65254 32.0715 3.23066C32.1437 4.14121 32.8447 4.84941 33.748 4.92168C34.3479 4.97227 34.5285 5.16016 34.5285 5.76719C34.5285 11.3822 34.5285 16.99 34.5285 22.6051C34.5285 23.1977 34.3695 23.3711 33.7842 23.4361C32.8375 23.5445 32.151 24.2166 32.0715 25.1055C32.0137 25.7414 31.8475 25.9004 31.2115 25.9004C29.7807 25.9004 28.3426 25.9004 26.9117 25.9076C26.7816 25.9076 26.601 25.9293 26.5215 26.016C26.218 26.3412 25.9434 26.6953 25.582 27.1289ZM12.8127 34.6807C12.7693 34.6229 12.7404 34.5867 12.7043 34.5506C10.3918 32.2381 8.07207 29.9256 5.75957 27.5986C5.60059 27.4396 5.49219 27.4686 5.32598 27.5625C4.19863 28.2273 3.06406 28.8922 1.92949 29.5498C1.45977 29.8244 1.22129 30.2146 1.22129 30.7566C1.22129 32.1803 1.22129 33.5967 1.22129 35.0203C1.22129 35.5406 1.44531 35.7719 1.97285 35.7719C5.01523 35.7719 8.06484 35.7719 11.1072 35.7646C11.2734 35.7646 11.4758 35.7141 11.6059 35.6129C12.025 35.3311 12.4008 35.0059 12.8127 34.6807ZM30.2143 14.1717C30.207 13.1527 29.3977 12.3434 28.3715 12.3434C27.3381 12.3434 26.5143 13.1672 26.5215 14.2006C26.5287 15.2123 27.3525 16.0361 28.3643 16.0434C29.3832 16.0434 30.2143 15.1979 30.2143 14.1717Z" fill="#3462B5" stroke="#3462B5" stroke-width="0.5"/>
<path d="M30.2142 7.38545C30.2214 8.41885 29.3976 9.2499 28.3714 9.2499C27.3597 9.2499 26.5358 8.42607 26.5286 7.42158C26.5214 6.38818 27.3452 5.55713 28.3786 5.55713C29.3903 5.55713 30.2069 6.3665 30.2142 7.38545ZM28.3858 8.01416C28.7183 8.00693 28.9929 7.71064 28.9784 7.371C28.964 7.03135 28.6749 6.77119 28.328 6.78564C28.0028 6.8001 27.7427 7.07471 27.7499 7.3999C27.7571 7.73955 28.0534 8.02861 28.3858 8.01416Z" fill="#3462B5" stroke="#3462B5" stroke-width="0.5"/>
</g>
<defs>
<clipPath id="clip0_929_2415">
<rect width="37" height="37" fill="white"/>
</clipPath>
</defs>
</svg>
