<svg width="34" height="34" viewBox="0 0 34 34" fill="none" xmlns="http://www.w3.org/2000/svg">
<g clip-path="url(#clip0_953_934)">
<path d="M6.90985 4.04613C6.72381 3.58571 6.77697 3.41749 7.18447 3.1253C10.3116 0.929464 13.7931 -0.0976188 17.6024 0.0174854C25.4513 0.256548 32.2371 6.05603 33.6899 13.7592C35.2845 22.206 30.5274 30.3696 22.3861 33.1321C21.0928 33.5659 19.7639 33.8404 18.3997 33.9467C18.3554 33.9467 18.3111 33.9909 18.2668 34.0086C17.3809 34.0086 16.4951 34.0086 15.6092 34.0086C15.556 33.9821 15.5029 33.9467 15.4409 33.9378C13.3768 33.7341 11.4101 33.194 9.54091 32.2909C9.41688 32.2289 9.22199 32.2467 9.08911 32.2998C8.13236 32.6805 7.20219 33.0966 6.23658 33.4508C5.61647 33.681 4.95206 33.8227 4.31423 34.0086C4.06618 34.0086 3.82699 34.0086 3.58781 34.0086C3.57895 33.9909 3.57009 33.9644 3.56123 33.9555C2.48932 33.3534 2.32986 32.8133 2.71079 31.6357C3.09171 30.4758 3.3752 29.2805 3.70297 28.1118C3.7827 27.8196 3.70297 27.5982 3.51694 27.3592C1.73632 25.0128 0.620115 22.392 0.186034 19.4789C0.132882 19.0894 0.0620115 18.7086 0 18.3279C0 17.3982 0 16.4685 0 15.5388C0.0620115 15.1581 0.132882 14.7685 0.194893 14.3878C0.79729 10.6336 2.46274 7.42842 5.19125 4.78103C5.51016 4.47113 5.6962 4.47113 6.1037 4.7279C6.31631 5.18832 6.28088 5.29457 5.87337 5.71071C2.18812 9.43832 0.664409 13.9274 1.28452 19.1071C1.63887 22.0201 2.78166 24.6409 4.642 26.9253C4.89891 27.244 4.95206 27.5451 4.89005 27.9347C4.642 29.4133 4.24336 30.8477 3.72069 32.2467C3.66754 32.3883 3.66754 32.6274 3.75612 32.7248C3.84471 32.8222 4.07504 32.8399 4.22564 32.8133C5.83794 32.4769 7.37051 31.919 8.82335 31.1487C9.16884 30.9628 9.45232 30.9628 9.81553 31.1399C14.5993 33.4774 19.4184 33.5039 24.1845 31.1399C30.2084 28.156 33.6457 21.5862 32.7421 14.9102C32.1928 10.8993 30.3768 7.54353 27.285 4.92269C23.8744 2.03624 19.8968 0.81436 15.4497 1.2128C12.6769 1.46071 10.1433 2.42582 7.85774 4.03728C7.43252 4.32946 7.29964 4.32946 6.90985 4.04613Z" fill="#282829" stroke="black" stroke-width="0.3"/>
<path d="M6.90986 4.04589C7.29964 4.32923 7.43253 4.33808 7.85775 4.03704C10.1433 2.43444 12.6769 1.46933 15.4497 1.21256C19.8968 0.814123 23.8656 2.036 27.2762 4.92246C30.3679 7.54329 32.184 10.899 32.7332 14.91C33.6457 21.586 30.2085 28.1558 24.1845 31.1308C19.4185 33.4949 14.5993 33.4683 9.81554 31.1308C9.45233 30.9537 9.16885 30.9537 8.82335 31.1396C7.37051 31.91 5.83795 32.4766 4.22565 32.8042C4.07505 32.8396 3.84472 32.8131 3.75613 32.7157C3.66754 32.6183 3.66754 32.3792 3.7207 32.2376C4.24336 30.8386 4.64201 29.4042 4.89006 27.9256C4.95207 27.536 4.89891 27.235 4.64201 26.9162C2.79052 24.623 1.63888 22.011 1.28453 19.098C0.655558 13.9183 2.17927 9.42923 5.86452 5.70162C6.28088 5.28548 6.30746 5.17923 6.09485 4.71881C6.36947 4.49746 6.64409 4.26725 6.90986 4.04589ZM19.8525 18.8943C19.8525 17.1766 19.8525 15.4678 19.8525 13.7501C19.8525 12.9178 19.4096 12.4751 18.5857 12.4751C16.9734 12.4751 15.3523 12.4751 13.74 12.4751C12.9161 12.4751 12.4997 12.9001 12.482 13.7235C12.4555 14.7594 12.4643 15.211 13.7577 15.574C14.0412 15.6537 14.1741 15.8219 14.1741 16.1318C14.1652 18.7881 14.1652 21.4443 14.1741 24.1006C14.1741 24.3928 14.0678 24.5787 13.7754 24.6672C12.4997 25.0391 12.4466 25.4287 12.482 26.5443C12.482 26.5797 12.482 26.6063 12.482 26.6417C12.4997 27.3058 12.9515 27.7662 13.616 27.7751C15.8749 27.7839 18.1339 27.7839 20.3929 27.7662C20.6321 27.7662 20.8802 27.6422 21.1016 27.536C21.7217 27.2527 21.7129 25.3136 21.1105 25.0303C20.8624 24.9152 20.6144 24.8001 20.3486 24.7115C19.8968 24.5521 19.8525 24.499 19.8525 24.0209C19.8525 22.3032 19.8525 20.5943 19.8525 18.8943ZM17.0089 5.10839C15.4409 5.10839 14.1741 6.37454 14.1652 7.92402C14.1563 9.49121 15.4497 10.7662 17.0177 10.7662C18.5769 10.7574 19.8437 9.49121 19.8437 7.93287C19.8525 6.38339 18.568 5.09954 17.0089 5.10839Z" fill="#2D97F3" stroke="black" stroke-width="0.3"/>
<path d="M19.8525 18.8945C19.8525 20.5945 19.8525 22.3034 19.8525 24.0034C19.8525 24.4815 19.8968 24.5346 20.3486 24.694C20.6055 24.7825 20.8624 24.8976 21.1105 25.0127C21.7129 25.3049 21.7217 27.244 21.1016 27.5185C20.8801 27.6247 20.6321 27.7398 20.3929 27.7487C18.1339 27.7664 15.8749 27.7664 13.6159 27.7575C12.9515 27.7575 12.4997 27.2882 12.482 26.6242C12.482 26.5888 12.482 26.5622 12.482 26.5268C12.4466 25.4112 12.4997 25.0216 13.7754 24.6497C14.0677 24.5612 14.1741 24.3841 14.1741 24.083C14.1652 21.4268 14.1652 18.7705 14.1741 16.1143C14.1741 15.8132 14.0412 15.6362 13.7577 15.5565C12.4643 15.1935 12.4554 14.7419 12.482 13.706C12.4997 12.8914 12.9161 12.4575 13.74 12.4575C15.3523 12.4575 16.9734 12.4575 18.5857 12.4575C19.4096 12.4575 19.8525 12.9002 19.8525 13.7325C19.8525 15.4591 19.8525 17.1768 19.8525 18.8945ZM13.6337 13.6174C13.5717 14.2992 13.5717 14.2992 14.1652 14.5205C14.1829 14.5294 14.2095 14.5382 14.2272 14.5471C14.8916 14.795 15.2903 15.3263 15.2903 16.0346C15.2991 18.7528 15.2991 21.4799 15.2903 24.1981C15.2903 24.9242 14.8828 25.4554 14.2095 25.7122C14.0146 25.783 13.8197 25.8539 13.6248 25.9247C13.6248 26.1638 13.6248 26.394 13.6248 26.6242C15.8927 26.6242 18.1428 26.6242 20.3929 26.6242C20.3929 26.3763 20.3929 26.1638 20.3929 25.9247C20.2955 25.8893 20.2069 25.8539 20.1094 25.8273C19.0109 25.4554 18.7097 25.0304 18.7097 23.8794C18.7097 20.5856 18.7097 17.283 18.7097 13.9893C18.7097 13.8742 18.7097 13.7591 18.7097 13.6351C17 13.6174 15.3257 13.6174 13.6337 13.6174Z" fill="#272829" stroke="black" stroke-width="0.3"/>
<path d="M17.0089 5.1084C18.568 5.1084 19.8525 6.3834 19.8525 7.92402C19.8525 9.48236 18.5857 10.7574 17.0266 10.7574C15.4497 10.7662 14.1652 9.48236 14.1741 7.91517C14.1741 6.37454 15.4409 5.1084 17.0089 5.1084ZM17.0089 6.24173C16.061 6.24173 15.2991 7.00319 15.2991 7.95059C15.2991 8.87142 16.0698 9.63288 17 9.63288C17.9479 9.63288 18.7098 8.86257 18.7009 7.92402C18.7009 6.98548 17.9479 6.24173 17.0089 6.24173Z" fill="#272829" stroke="black" stroke-width="0.3"/>
<path d="M13.6337 13.6177C15.3257 13.6177 16.9911 13.6177 18.7097 13.6177C18.7097 13.7416 18.7097 13.8567 18.7097 13.9718C18.7097 17.2656 18.7097 20.5682 18.7097 23.8619C18.7097 25.013 19.0198 25.438 20.1094 25.8099C20.2069 25.8453 20.2955 25.8718 20.3929 25.9073C20.3929 26.1375 20.3929 26.3588 20.3929 26.6067C18.1428 26.6067 15.8926 26.6067 13.6248 26.6067C13.6248 26.3765 13.6248 26.1552 13.6248 25.9073C13.8197 25.8364 14.0146 25.7744 14.2095 25.6948C14.8916 25.4468 15.2902 24.9067 15.2902 24.1807C15.2991 21.4625 15.2991 18.7354 15.2902 16.0172C15.2902 15.3088 14.8827 14.7776 14.2272 14.5297C14.2095 14.5208 14.1829 14.5119 14.1652 14.5031C13.5716 14.2994 13.5716 14.2994 13.6337 13.6177Z" fill="#FCFCFC" stroke="black" stroke-width="0.3"/>
<path d="M17.0089 6.24177C17.9391 6.24177 18.692 6.99438 18.7009 7.92407C18.7098 8.86261 17.9479 9.63292 17 9.63292C16.0787 9.63292 15.2991 8.87146 15.2991 7.95063C15.308 7.00323 16.0698 6.23292 17.0089 6.24177Z" fill="#FCFCFC" stroke="black" stroke-width="0.3"/>
</g>
<defs>
<clipPath id="clip0_953_934">
<rect width="34" height="34" fill="white"/>
</clipPath>
</defs>
</svg>
