<svg width="27" height="27" viewBox="0 0 27 27" fill="none" xmlns="http://www.w3.org/2000/svg">
<path d="M12.1574 14.8593C11.8535 14.8593 11.634 14.8593 11.3976 14.8593C8.27378 14.8593 5.15001 14.8593 2.02623 14.8593C1.87426 14.8593 1.73918 14.8593 1.58721 14.8593C0.624754 14.8424 0 14.3021 0 13.5085C0 12.698 0.60787 12.1577 1.57033 12.1408C4.64345 12.124 7.73345 12.1408 10.8066 12.1408C11.2287 12.1408 11.634 12.1408 12.1405 12.1408C12.1405 11.8369 12.1405 11.5836 12.1405 11.3472C12.1405 8.18974 12.1405 5.01536 12.1405 1.85786C12.1405 1.57082 12.1574 1.26688 12.2249 0.979838C12.36 0.405747 12.9003 0.0173933 13.4744 0.000508322C14.0823 -0.0163767 14.6226 0.388863 14.7746 0.996724C14.8422 1.26688 14.859 1.53704 14.859 1.80721C14.859 4.9647 14.859 8.13909 14.859 11.2966C14.859 11.5499 14.859 11.8031 14.859 12.1408C15.1461 12.1408 15.3994 12.1408 15.6358 12.1408C18.7933 12.1408 21.9677 12.1408 25.1253 12.1408C25.3786 12.1408 25.6318 12.1408 25.8851 12.1915C26.5605 12.3266 27.0164 12.8838 26.9995 13.5254C26.9827 14.1502 26.5436 14.6905 25.902 14.8087C25.6487 14.8593 25.3954 14.8593 25.1422 14.8593C22.0015 14.8593 18.8608 14.8593 15.7202 14.8593C15.4669 14.8593 15.2136 14.8593 14.859 14.8593C14.859 15.1464 14.859 15.3828 14.859 15.6192C14.859 18.7429 14.859 21.8666 14.859 24.9903C14.859 25.1592 14.859 25.328 14.859 25.4969C14.8253 26.4087 14.2681 27.0165 13.4913 26.9997C12.7146 26.9997 12.1574 26.3918 12.1405 25.48C12.1236 22.255 12.1405 19.0299 12.1405 15.8049C12.1574 15.5178 12.1574 15.2477 12.1574 14.8593Z" fill="#3462B5"/>
</svg>
