<svg width="37" height="37" viewBox="0 0 37 37" fill="none" xmlns="http://www.w3.org/2000/svg">
<path d="M0 3.32507C0.062764 3.10883 0.119734 2.89065 0.189258 2.67731C0.722269 1.04679 2.17743 0.00418929 3.94834 0.00225855C10.0558 -0.00160295 16.1641 -0.000637572 22.2716 0.00612004C22.6057 0.00612004 22.9475 0.0428042 23.271 0.120999C25.0506 0.556383 26.2122 2.05657 26.2209 3.95836C26.2344 6.98094 26.2257 10.0035 26.2228 13.0251C26.2218 13.6169 25.9341 13.9558 25.4494 13.9567C24.9675 13.9587 24.6711 13.615 24.6711 13.03C24.6682 10.0074 24.673 6.9848 24.6682 3.96318C24.6663 2.80281 24.028 1.92045 22.9861 1.63664C22.7341 1.56809 22.4637 1.5401 22.2011 1.5401C16.1419 1.53527 10.0818 1.53431 4.02269 1.5372C2.51249 1.53817 1.53724 2.51609 1.53724 4.02786C1.5353 12.1322 1.5353 20.2355 1.53724 28.3398C1.53724 29.8699 2.51346 30.8363 4.05359 30.8382C7.46312 30.8411 10.8717 30.8392 14.2812 30.8392C14.4135 30.8392 14.5468 30.8353 14.6791 30.845C15.1136 30.8749 15.4033 31.1693 15.4119 31.5844C15.4206 32.0102 15.1213 32.3355 14.6839 32.3712C14.5883 32.3789 14.4917 32.3751 14.3952 32.3751C10.9499 32.3751 7.50464 32.35 4.05938 32.3838C1.79409 32.406 0.27423 30.7706 0.0569704 29.1391C0.053108 29.1083 0.0212432 29.0803 0.0019312 29.0513C0 20.4759 0 11.9005 0 3.32507Z" fill="black"/>
<circle cx="26.75" cy="26.75" r="9.5" fill="#2D97F3" stroke="black" stroke-width="1.5"/>
<circle cx="26.75" cy="26.75" r="9.5" fill="#2D97F3" stroke="black" stroke-width="1.5"/>
<circle cx="26.75" cy="26.75" r="9.5" fill="#2D97F3" stroke="black" stroke-width="1.5"/>
<path d="M13.1304 12.3411C13.8652 12.3411 14.599 12.3344 15.3339 12.3421C17.5789 12.3652 19.2011 13.9427 19.2803 16.1833C19.2976 16.6641 19.2918 17.1458 19.2822 17.6275C19.2725 18.1556 18.9674 18.4925 18.5155 18.4983C18.052 18.5041 17.7411 18.1565 17.7314 17.6082C17.7227 17.0908 17.7411 16.5723 17.7198 16.0559C17.6706 14.8781 16.7069 13.9041 15.527 13.8857C13.9144 13.8606 12.2999 13.8596 10.6874 13.8857C9.46301 13.906 8.51768 14.9225 8.48003 16.2036C8.46651 16.6727 8.48099 17.1419 8.4752 17.6111C8.4694 18.1585 8.16041 18.507 7.69789 18.4983C7.25178 18.4905 6.92734 18.1391 6.94569 17.6217C6.97369 16.8069 6.9312 15.9719 7.10211 15.1851C7.45263 13.572 8.9551 12.4039 10.6024 12.3537C11.4444 12.3276 12.2874 12.3488 13.1304 12.3488C13.1304 12.3469 13.1304 12.344 13.1304 12.3411Z" fill="black"/>
<path d="M13.1263 10.7847C11.4211 10.7944 10.0461 9.43704 10.0345 7.73412C10.0229 6.0312 11.3844 4.64107 13.0761 4.62852C14.7881 4.615 16.1902 5.99838 16.1941 7.70226C16.197 9.39843 14.8268 10.775 13.1263 10.7847ZM13.1109 9.24976C13.9519 9.24879 14.6568 8.54504 14.6549 7.70709C14.653 6.86818 13.9461 6.16249 13.107 6.16443C12.266 6.16539 11.5669 6.86818 11.5679 7.71192C11.5688 8.55855 12.2641 9.25169 13.1109 9.24976Z" fill="black"/>
<path d="M10.051 23.1253C8.52245 23.1253 6.99391 23.1311 5.46536 23.1224C4.81262 23.1185 4.42734 22.5142 4.72668 21.9842C4.8918 21.6936 5.15541 21.5865 5.48371 21.5884C6.43483 21.5932 7.38498 21.5903 8.33609 21.5903C10.3938 21.5903 12.4524 21.5894 14.5101 21.5913C15.0383 21.5923 15.3502 21.824 15.4043 22.2381C15.4709 22.7488 15.1262 23.1224 14.5642 23.1243C13.0598 23.1291 11.5554 23.1253 10.051 23.1253Z" fill="black"/>
<path d="M9.25428 27.7504C7.97969 27.7504 6.70413 27.7543 5.42954 27.7475C5.01143 27.7456 4.69858 27.4734 4.63678 27.0978C4.58174 26.7628 4.771 26.4008 5.09544 26.2831C5.24801 26.228 5.42471 26.2184 5.58983 26.2184C6.88856 26.2135 8.18826 26.2155 9.48699 26.2155C10.6418 26.2155 11.7967 26.2135 12.9506 26.2164C13.529 26.2184 13.8834 26.5176 13.8776 26.9887C13.8718 27.4598 13.5145 27.7495 12.9342 27.7504C11.7079 27.7514 10.4816 27.7504 9.25428 27.7504Z" fill="black"/>
<path d="M13.1109 9.24987C12.2641 9.25084 11.5688 8.5577 11.5679 7.71107C11.5669 6.8683 12.266 6.16551 13.107 6.16358C13.9452 6.16261 14.653 6.86733 14.6549 7.70624C14.6568 8.54515 13.9529 9.24891 13.1109 9.24987Z" fill="#2D97F3"/>
<path d="M27.9042 25.1347C27.8761 26.1732 27.8425 27.2116 27.82 28.2501C27.8144 28.5774 27.6797 28.7788 27.4158 28.9047C27.1463 29.0305 26.8769 29.0242 26.6074 28.9298C26.3379 28.8354 26.2088 28.6277 26.1976 28.313C26.1302 26.2487 26.0629 24.178 26.0011 22.1074C25.9843 21.5536 26.1583 21.2515 26.5681 21.0878C27.0341 20.899 27.6123 21.0186 27.8368 21.4088C27.9435 21.5976 27.9884 21.8619 27.994 22.0948C28.0109 22.6046 27.9884 23.1144 27.9716 23.6305C27.9547 24.134 27.9267 24.6375 27.9098 25.1347H27.9042Z" fill="white"/>
<path d="M26 31.0026C26 30.4462 26.4456 30 27.0027 30C27.5385 30 28 30.4619 28 30.9974C28 31.5275 27.5385 31.9947 27.008 32C26.4562 32.0052 26 31.5538 26 31.0026Z" fill="white"/>
</svg>
