<svg width="32" height="32" viewBox="0 0 32 32" fill="none" xmlns="http://www.w3.org/2000/svg">
<path d="M30.9961 30.5277C30.9961 29.65 30.9961 28.7722 30.9961 27.8945C30.8597 27.3832 30.6893 26.8889 30.3229 26.4884C29.7775 25.8834 29.0958 25.5851 28.2862 25.534C28.2862 21.4436 28.2862 17.3702 28.2862 13.2713C28.8998 13.2713 29.4963 13.2542 30.0928 13.2798C30.5104 13.2968 30.8171 13.169 30.9961 12.777C30.9961 11.7459 30.9961 10.7062 30.9961 9.6751C30.8512 9.5217 30.7319 9.33423 30.553 9.23197C26.7097 6.93111 22.8664 4.63877 19.0146 2.36347C18.1539 1.86069 17.3528 1.22156 16.3473 1C16.0916 1 15.836 1 15.5889 1C15.265 1.12783 14.9242 1.22156 14.6259 1.392C10.2202 3.99964 5.82298 6.6158 1.41726 9.22344C1.12752 9.39388 0.991173 9.63249 0.999695 9.96483C1.00822 10.6807 1.02526 11.388 0.999695 12.1038C0.957087 13.169 1.28943 13.2968 2.15865 13.2713C2.66995 13.2542 3.18977 13.2713 3.70959 13.2713C3.70959 17.3872 3.70959 21.4606 3.70959 25.534C3.64994 25.5425 3.61586 25.551 3.57325 25.551C2.26943 25.6533 1.22978 26.5481 1.05935 27.8434C0.965609 28.5762 1.00822 29.3261 1.00822 30.0675C0.999695 30.8004 1.21274 31.0049 1.9456 31.0049C11.3195 31.0049 20.6848 31.0049 30.0587 31.0134C30.4677 31.0049 30.7916 30.9027 30.9961 30.5277ZM2.35464 11.8907C2.35464 11.405 2.36317 10.9534 2.34612 10.5102C2.3376 10.3142 2.40578 10.212 2.56769 10.1182C6.79445 7.61284 11.0127 5.10746 15.2309 2.60208C15.7508 2.2953 16.2535 2.2953 16.7734 2.6106C18.3243 3.54799 19.8923 4.46833 21.4518 5.38868C24.102 6.96519 26.7523 8.54171 29.394 10.1182C29.4878 10.1694 29.6156 10.2631 29.6241 10.3483C29.6411 10.8596 29.6326 11.3709 29.6326 11.8907C20.5229 11.8907 11.4558 11.8907 2.35464 11.8907ZM29.6156 29.6244C20.5229 29.6244 11.4558 29.6244 2.36317 29.6244C2.36317 29.2409 2.36317 28.8745 2.36317 28.5081C2.36317 27.4343 2.89151 26.9145 3.96525 26.906C11.9927 26.906 20.0116 26.906 28.0391 26.906C28.1243 26.906 28.218 26.906 28.3032 26.906C28.9764 26.9315 29.5389 27.3917 29.6071 28.0649C29.6582 28.5677 29.6156 29.0875 29.6156 29.6244ZM22.7812 13.2883C22.7812 17.3787 22.7812 21.4521 22.7812 25.5255C21.4177 25.5255 20.0883 25.5255 18.7419 25.5255C18.7419 21.4436 18.7419 17.3702 18.7419 13.2883C20.0968 13.2883 21.4433 13.2883 22.7812 13.2883ZM13.2539 13.2883C13.2539 17.3787 13.2539 21.4436 13.2539 25.5255C11.899 25.5255 10.5525 25.5255 9.19757 25.5255C9.19757 21.4436 9.19757 17.3702 9.19757 13.2883C10.5525 13.2883 11.899 13.2883 13.2539 13.2883ZM26.8801 13.2798C26.8801 17.3787 26.8801 21.4521 26.8801 25.5255C25.9768 25.5255 25.0906 25.5255 24.2043 25.5255C24.2043 21.435 24.2043 17.3617 24.2043 13.2798C25.1076 13.2798 25.9768 13.2798 26.8801 13.2798ZM14.66 25.534C14.66 21.435 14.66 17.3617 14.66 13.2883C15.5633 13.2883 16.4495 13.2883 17.3358 13.2883C17.3358 17.3787 17.3358 21.4521 17.3358 25.534C16.4325 25.534 15.5633 25.534 14.66 25.534ZM7.79149 13.2968C7.79149 17.3787 7.79149 21.4521 7.79149 25.5255C6.88819 25.5255 6.00193 25.5255 5.11568 25.5255C5.11568 21.435 5.11568 17.3617 5.11568 13.2713C5.96785 13.2713 6.79445 13.2713 7.62106 13.2713C7.67219 13.2713 7.73184 13.2883 7.79149 13.2968Z" fill="#3462B5" stroke="#3462B5" stroke-width="0.5"/>
</svg>
