<svg width="32" height="32" viewBox="0 0 32 32" fill="none" xmlns="http://www.w3.org/2000/svg">
<g clip-path="url(#clip0_929_2425)">
<path d="M20.7455 0C20.9925 0 21.2481 0 21.4952 0C22.7561 0.195953 23.4803 1.03088 24.0682 2.09585C25.2524 4.24281 26.4963 6.36422 27.7146 8.49414C27.8253 8.6901 27.9531 8.78381 28.1661 8.80937C28.6603 8.87753 29.0948 9.09904 29.4782 9.41427C30.2279 10.0362 30.5431 10.8541 30.5431 11.8083C30.5431 13.1544 30.5431 14.492 30.5431 15.8381C30.5431 16.0341 30.5857 16.1534 30.7817 16.2471C31.557 16.6305 31.9744 17.278 31.9915 18.1384C32.017 19.6124 32.017 21.0948 31.9915 22.5772C31.983 23.4292 31.557 24.0682 30.8072 24.4601C30.5943 24.5708 30.5431 24.6901 30.5431 24.9116C30.5517 26.2236 30.5517 27.5357 30.5431 28.8477C30.5431 29.1544 30.5176 29.4782 30.4409 29.7764C30.0575 31.1906 28.967 31.9915 27.4675 32C19.3397 32 11.2034 32 3.07561 32C2.78594 32 2.48775 31.9744 2.21512 31.8978C0.826411 31.5059 0 30.4153 0 28.9585C0 23.2247 0 17.4824 0 11.7487C0 11.4675 0.0255591 11.1864 0.102236 10.9137C0.485623 9.54207 1.54207 8.74973 3.00746 8.73269C3.70607 8.72417 4.40469 8.74121 5.1033 8.72417C5.29926 8.71566 5.51225 8.66454 5.68264 8.5623C8.89457 6.70501 12.0895 4.80511 15.3184 2.97338C17.1161 1.95953 18.7945 0.732694 20.7455 0ZM29.0777 16C29.0777 15.8637 29.0777 15.7614 29.0777 15.6592C29.0777 14.3898 29.0777 13.1203 29.0777 11.8509C29.0777 10.7433 28.5154 10.1896 27.3994 10.1896C19.3056 10.1896 11.2204 10.1896 3.12673 10.1896C2.01917 10.1896 1.44835 10.7604 1.43983 11.8594C1.43983 17.5335 1.43983 23.2077 1.43983 28.8818C1.43983 29.9638 2.01917 30.5517 3.09265 30.5517C11.2034 30.5517 19.3142 30.5517 27.4249 30.5517C28.4899 30.5517 29.0607 29.9723 29.0692 28.9073C29.0692 27.6294 29.0692 26.3429 29.0692 25.065C29.0692 24.9627 29.0607 24.8605 29.0522 24.7327C28.8988 24.7327 28.7625 24.7327 28.6262 24.7327C27.1779 24.7242 25.7295 24.7753 24.2897 24.6901C21.7338 24.5367 19.8679 21.9297 20.4558 19.4334C20.9414 17.3887 22.6369 16.0256 24.7412 16.0085C26.0618 16 27.3823 16.0085 28.7114 16.0085C28.8222 16 28.9329 16 29.0777 16ZM27.1097 23.2503C27.1097 23.2588 27.1097 23.2588 27.1097 23.2673C27.9446 23.2673 28.7796 23.2673 29.606 23.2673C30.2705 23.2673 30.5431 23.0032 30.5431 22.3472C30.5431 21.0266 30.5431 19.7061 30.5431 18.377C30.5431 17.7295 30.262 17.4483 29.6145 17.4483C28.0383 17.4483 26.4707 17.4313 24.8946 17.4569C24.443 17.4654 23.9659 17.5421 23.557 17.7125C22.2875 18.2492 21.6315 19.5612 21.8701 20.9329C22.0916 22.1938 23.2247 23.1821 24.5793 23.2417C25.4228 23.2843 26.2662 23.2503 27.1097 23.2503ZM22.3983 2.18104C21.9723 1.43131 21.1544 1.2524 20.3451 1.72098C16.443 3.98722 12.541 6.26198 8.6475 8.53674C8.57082 8.57934 8.51118 8.63046 8.36635 8.73269C9.28648 8.73269 10.1044 8.74121 10.9223 8.72417C11.0927 8.72417 11.2716 8.67306 11.4164 8.58786C14.9947 6.50905 18.573 4.43024 22.1512 2.34292C22.2279 2.2918 22.3131 2.23216 22.3983 2.18104ZM14.1853 8.66454C14.1938 8.6901 14.2023 8.71565 14.2109 8.73269C15.0032 8.73269 15.787 8.74121 16.5793 8.72417C16.7923 8.71566 17.0309 8.66454 17.2183 8.55378C19.3482 7.32694 21.4697 6.09159 23.5911 4.85623C23.6763 4.80511 23.7615 4.74547 23.8637 4.68584C23.6251 4.26837 23.3951 3.86794 23.148 3.44196C20.1406 5.19702 17.1672 6.92652 14.1853 8.66454ZM26.164 8.71566C25.6187 7.76145 25.1076 6.86688 24.5879 5.95527C23.0032 6.88392 21.4697 7.76997 19.9446 8.66454C19.9531 8.68158 19.9617 8.69862 19.9702 8.71566C22.0064 8.71566 24.0511 8.71566 26.164 8.71566Z" fill="#3462B5" stroke="#3462B5" stroke-width="0.4"/>
<path d="M24.707 18.9137C25.5079 18.9051 26.1639 19.5441 26.1809 20.345C26.1895 21.1373 25.5334 21.8018 24.7411 21.8104C23.9403 21.8189 23.2928 21.1799 23.2757 20.379C23.2587 19.5867 23.9062 18.9222 24.707 18.9137Z" fill="#3462B5" stroke="#3462B5" stroke-width="0.4"/>
</g>
<defs>
<clipPath id="clip0_929_2425">
<rect width="32" height="31.9915" fill="white"/>
</clipPath>
</defs>
</svg>
