<svg width="37" height="38" viewBox="0 0 37 38" fill="none" xmlns="http://www.w3.org/2000/svg">
<path d="M0 3.32507C0.062764 3.10883 0.119734 2.89065 0.189258 2.67731C0.722269 1.04679 2.17743 0.00418929 3.94834 0.00225855C10.0558 -0.00160295 16.1641 -0.000637572 22.2716 0.00612004C22.6057 0.00612004 22.9475 0.0428042 23.271 0.120999C25.0506 0.556383 26.2122 2.05657 26.2209 3.95836C26.2344 6.98094 26.2257 10.0035 26.2228 13.0251C26.2218 13.6169 25.9341 13.9558 25.4494 13.9567C24.9675 13.9587 24.6711 13.615 24.6711 13.03C24.6682 10.0074 24.673 6.9848 24.6682 3.96318C24.6663 2.80281 24.028 1.92045 22.9861 1.63664C22.7341 1.56809 22.4637 1.5401 22.2011 1.5401C16.1419 1.53527 10.0818 1.53431 4.02269 1.5372C2.51249 1.53817 1.53724 2.51609 1.53724 4.02786C1.5353 12.1322 1.5353 20.2355 1.53724 28.3398C1.53724 29.8699 2.51346 30.8363 4.05359 30.8382C7.46312 30.8411 10.8717 30.8392 14.2812 30.8392C14.4135 30.8392 14.5468 30.8353 14.6791 30.845C15.1136 30.8749 15.4033 31.1693 15.4119 31.5844C15.4206 32.0102 15.1213 32.3355 14.6839 32.3712C14.5883 32.3789 14.4917 32.3751 14.3952 32.3751C10.9499 32.3751 7.50464 32.35 4.05938 32.3838C1.79409 32.406 0.27423 30.7706 0.0569704 29.1391C0.053108 29.1083 0.0212432 29.0803 0.0019312 29.0513C0 20.4759 0 11.9005 0 3.32507Z" fill="black"/>
<path d="M26.1706 37.0002C25.5014 36.8622 24.8207 36.7656 24.166 36.5803C20.3654 35.502 17.5237 32.1521 17.0505 28.2288C16.3987 22.8179 20.0477 17.9708 25.4483 17.0749C30.7862 16.1897 36.0506 19.9932 36.8743 25.3298C37.7153 30.7851 34.2556 35.7472 28.8579 36.8236C28.518 36.8911 28.1752 36.9423 27.8334 37.0012C27.2791 37.0002 26.7249 37.0002 26.1706 37.0002ZM27.1835 35.4585C31.9217 35.2819 35.6383 31.3924 35.4722 26.7856C35.2994 21.9655 31.3887 18.3251 26.5791 18.5075C21.9625 18.6823 18.3319 22.6808 18.5144 27.3899C18.6891 31.9117 22.68 35.6265 27.1835 35.4585Z" fill="black"/>
<path d="M13.1303 12.3411C13.8651 12.3411 14.599 12.3344 15.3338 12.3421C17.5788 12.3652 19.201 13.9427 19.2802 16.1833C19.2976 16.6641 19.2918 17.1458 19.2821 17.6275C19.2725 18.1556 18.9673 18.4925 18.5154 18.4983C18.052 18.5041 17.741 18.1565 17.7314 17.6082C17.7227 17.0908 17.741 16.5723 17.7198 16.0559C17.6705 14.8781 16.7069 13.9041 15.5269 13.8857C13.9144 13.8606 12.2999 13.8596 10.6873 13.8857C9.46294 13.906 8.51762 14.9225 8.47996 16.2036C8.46645 16.6727 8.48093 17.1419 8.47514 17.6111C8.46934 18.1585 8.16035 18.507 7.69783 18.4983C7.25172 18.4905 6.92728 18.1391 6.94563 17.6217C6.97363 16.8069 6.93114 15.9719 7.10205 15.1851C7.45257 13.572 8.95504 12.4039 10.6024 12.3537C11.4444 12.3276 12.2873 12.3488 13.1303 12.3488C13.1303 12.3469 13.1303 12.344 13.1303 12.3411Z" fill="black"/>
<path d="M13.1263 10.7847C11.421 10.7944 10.046 9.43704 10.0344 7.73412C10.0228 6.0312 11.3843 4.64107 13.0761 4.62852C14.7881 4.615 16.1901 5.99838 16.194 7.70226C16.1969 9.39843 14.8267 10.775 13.1263 10.7847ZM13.1108 9.24976C13.9519 9.24879 14.6568 8.54504 14.6548 7.70709C14.6529 6.86818 13.9461 6.16249 13.107 6.16443C12.2659 6.16539 11.5668 6.86818 11.5678 7.71192C11.5688 8.55855 12.264 9.25169 13.1108 9.24976Z" fill="black"/>
<path d="M10.051 23.1253C8.52245 23.1253 6.99391 23.1311 5.46536 23.1224C4.81262 23.1185 4.42734 22.5142 4.72668 21.9842C4.8918 21.6936 5.15541 21.5865 5.48371 21.5884C6.43483 21.5932 7.38498 21.5903 8.33609 21.5903C10.3938 21.5903 12.4524 21.5894 14.5101 21.5913C15.0383 21.5923 15.3502 21.824 15.4043 22.2381C15.4709 22.7488 15.1262 23.1224 14.5642 23.1243C13.0598 23.1291 11.5554 23.1253 10.051 23.1253Z" fill="black"/>
<path d="M9.25428 27.7504C7.97969 27.7504 6.70413 27.7543 5.42954 27.7475C5.01143 27.7456 4.69858 27.4734 4.63678 27.0978C4.58174 26.7628 4.771 26.4008 5.09544 26.2831C5.24801 26.228 5.42471 26.2184 5.58983 26.2184C6.88856 26.2135 8.18826 26.2155 9.48699 26.2155C10.6418 26.2155 11.7967 26.2135 12.9506 26.2164C13.529 26.2184 13.8834 26.5176 13.8776 26.9887C13.8718 27.4598 13.5145 27.7495 12.9342 27.7504C11.7079 27.7514 10.4816 27.7504 9.25428 27.7504Z" fill="black"/>
<path d="M27.1835 35.459C22.6799 35.627 18.6891 31.9122 18.5143 27.3895C18.3328 22.6804 21.9625 18.6828 26.579 18.5071C31.3887 18.3246 35.2994 21.965 35.4722 26.7851C35.6383 31.3929 31.9217 35.2823 27.1835 35.459ZM25.3701 28.9814C25.2648 28.8414 25.1953 28.7255 25.1026 28.6319C24.391 27.9146 23.6784 27.1973 22.9571 26.4888C22.6037 26.1422 22.1402 26.1287 21.8292 26.4299C21.5164 26.734 21.5135 27.2109 21.8543 27.5565C22.8518 28.5662 23.856 29.5712 24.867 30.5684C25.2523 30.9478 25.7071 30.9304 26.0663 30.5221C27.8469 28.4987 29.6216 26.4704 31.3925 24.4383C31.7102 24.0734 31.6745 23.5984 31.3394 23.3117C31.0102 23.0308 30.5727 23.0655 30.2464 23.4169C29.9519 23.7346 29.6728 24.0657 29.387 24.392C28.0718 25.8941 26.7567 27.3972 25.3701 28.9814Z" fill="#2D97F3"/>
<path d="M13.1108 9.24987C12.264 9.25084 11.5688 8.5577 11.5678 7.71107C11.5668 6.8683 12.2659 6.16551 13.107 6.16358C13.9451 6.16261 14.6529 6.86733 14.6548 7.70624C14.6568 8.54515 13.9528 9.24891 13.1108 9.24987Z" fill="#2D97F3"/>
</svg>
