<svg width="32" height="32" viewBox="0 0 32 32" fill="none" xmlns="http://www.w3.org/2000/svg">
<path d="M0.0090332 7.25745C0.0090332 5.16832 0.0090332 3.07919 0.0090332 0.990065C0.0090332 0.236162 0.254279 0 1.01726 0C5.18644 0 9.36469 0 13.5429 0C14.315 0 14.5512 0.236162 14.5512 1.01731C14.5512 5.18649 14.5512 9.34657 14.5512 13.5157C14.5512 14.3151 14.315 14.5421 13.5157 14.5421C9.36469 14.5421 5.2046 14.5421 1.0536 14.5421C0.227029 14.5421 0.0090332 14.3151 0.0090332 13.4885C0.0090332 11.4085 0.0090332 9.33749 0.0090332 7.25745ZM1.48959 13.0616C5.3681 13.0616 9.21028 13.0616 13.0615 13.0616C13.0615 9.19216 13.0615 5.3409 13.0615 1.48964C9.19211 1.48964 5.34993 1.48964 1.48959 1.48964C1.48959 5.34998 1.48959 9.19216 1.48959 13.0616Z" fill="black"/>
<path d="M31.9909 7.2847C31.9909 9.36474 31.9909 11.4357 31.9909 13.5157C31.9909 14.306 31.7548 14.5421 30.9827 14.5421C26.8044 14.5421 22.6262 14.5421 18.457 14.5421C17.685 14.5421 17.4488 14.306 17.4488 13.5157C17.4488 9.34657 17.4488 5.18649 17.4488 1.01731C17.4488 0.227079 17.6759 0 18.4934 0C22.6444 0 26.8045 0 30.9555 0C31.782 0 32 0.217996 32 1.05365C31.9909 3.13369 31.9909 5.21374 31.9909 7.2847ZM30.5104 1.48964C26.6319 1.48964 22.7897 1.48964 18.9384 1.48964C18.9384 5.35907 18.9384 9.21033 18.9384 13.0616C22.8079 13.0616 26.65 13.0616 30.5104 13.0616C30.5104 9.19216 30.5104 5.34998 30.5104 1.48964Z" fill="black"/>
<path d="M0.00908316 24.6964C0.00908316 22.6164 0.00908316 20.5454 0.00908316 18.4654C0.00908316 17.6751 0.245245 17.439 1.01731 17.439C5.19557 17.439 9.37382 17.439 13.543 17.439C14.3151 17.439 14.5512 17.6751 14.5512 18.4654C14.5512 22.6345 14.5512 26.7946 14.5512 30.9638C14.5512 31.7631 14.3151 31.9902 13.5067 31.9902C9.35566 31.9902 5.19557 31.9902 1.04456 31.9902C0.217996 31.9902 0 31.7631 0 30.9365C0.00908316 28.8474 0.00908316 26.7674 0.00908316 24.6964ZM1.48964 30.5006C5.36815 30.5006 9.21033 30.5006 13.0616 30.5006C13.0616 26.6311 13.0616 22.7799 13.0616 18.9286C9.19216 18.9286 5.34998 18.9286 1.48964 18.9286C1.48964 22.7889 1.48964 26.6311 1.48964 30.5006Z" fill="black"/>
<path d="M23.9887 25.4417C23.8252 25.4417 23.7071 25.4417 23.5799 25.4417C21.8995 25.4417 20.2192 25.4417 18.5388 25.4417C18.457 25.4417 18.3844 25.4417 18.3026 25.4417C17.7849 25.4326 17.4488 25.142 17.4488 24.715C17.4488 24.2791 17.7758 23.9884 18.2935 23.9793C19.9467 23.9702 21.6089 23.9793 23.262 23.9793C23.4891 23.9793 23.7071 23.9793 23.9796 23.9793C23.9796 23.8158 23.9796 23.6796 23.9796 23.5524C23.9796 21.8538 23.9796 20.1462 23.9796 18.4477C23.9796 18.2932 23.9887 18.1298 24.025 17.9753C24.0977 17.6665 24.3883 17.4576 24.6972 17.4485C25.0241 17.4394 25.3148 17.6574 25.3966 17.9844C25.4329 18.1298 25.442 18.2751 25.442 18.4204C25.442 20.119 25.442 21.8266 25.442 23.5252C25.442 23.6614 25.442 23.7976 25.442 23.9793C25.5964 23.9793 25.7326 23.9793 25.8598 23.9793C27.5584 23.9793 29.266 23.9793 30.9645 23.9793C31.1008 23.9793 31.237 23.9793 31.3733 24.0066C31.7366 24.0792 31.9819 24.379 31.9728 24.7241C31.9637 25.0602 31.7275 25.3509 31.3824 25.4144C31.2461 25.4417 31.1099 25.4417 30.9736 25.4417C29.2842 25.4417 27.5947 25.4417 25.9052 25.4417C25.769 25.4417 25.6327 25.4417 25.442 25.4417C25.442 25.5961 25.442 25.7233 25.442 25.8504C25.442 27.5308 25.442 29.2112 25.442 30.8916C25.442 30.9824 25.442 31.0733 25.442 31.1641C25.4238 31.6546 25.1241 31.9816 24.7062 31.9725C24.2884 31.9725 23.9887 31.6455 23.9796 31.155C23.9705 29.4201 23.9796 27.6852 23.9796 25.9504C23.9887 25.7959 23.9887 25.6506 23.9887 25.4417Z" fill="black"/>
<path d="M1.48962 13.0612C1.48962 9.20086 1.48962 5.35868 1.48962 1.48926C5.34997 1.48926 9.19214 1.48926 13.0616 1.48926C13.0616 5.34052 13.0616 9.18269 13.0616 13.0612C9.21939 13.0612 5.37722 13.0612 1.48962 13.0612Z" fill="#FEFEFE"/>
<path d="M30.5102 1.48926C30.5102 5.3496 30.5102 9.19178 30.5102 13.0612C26.6499 13.0612 22.8077 13.0612 18.9383 13.0612C18.9383 9.20994 18.9383 5.36777 18.9383 1.48926C22.7896 1.48926 26.6317 1.48926 30.5102 1.48926Z" fill="#2D97F3"/>
<path d="M1.48962 30.5011C1.48962 26.6317 1.48962 22.7895 1.48962 18.9292C5.34997 18.9292 9.19214 18.9292 13.0616 18.9292C13.0616 22.7805 13.0616 26.6317 13.0616 30.5011C9.21031 30.5011 5.36813 30.5011 1.48962 30.5011Z" fill="#2D97F3"/>
</svg>
