<svg width="37" height="32" viewBox="0 0 37 32" fill="none" xmlns="http://www.w3.org/2000/svg">
<path d="M21.1741 25.3598C20.9003 25.141 20.6447 24.9404 20.3709 24.7217C20.517 24.4847 20.6447 24.2659 20.7908 24.0289C19.8233 23.0991 19.5678 23.0991 18.6368 23.9742C17.4138 25.1228 16.1909 26.2895 14.9679 27.4563C14.11 28.2767 13.9457 28.222 13.5806 27.1464C12.6132 24.193 11.6275 21.2395 10.6783 18.2679C10.4775 17.6298 10.1307 17.3016 9.4918 17.1193C7.10058 16.3901 4.70936 15.6244 2.33639 14.8586C2.08084 14.7857 1.88005 14.567 1.66101 14.4029C1.88005 14.2388 2.06259 14.0018 2.29989 13.8924C13.033 9.86333 23.7843 5.83426 34.5357 1.80519C34.7547 1.73226 34.992 1.73226 35.2293 1.6958C35.2476 1.95104 35.3206 2.2245 35.2841 2.46151C33.477 11.2307 31.6699 19.9998 29.8445 28.7872C29.6255 29.8081 29.0779 30.0269 28.2382 29.4253C27.3986 28.8419 26.5771 28.222 25.7557 27.6022C24.4232 26.6177 23.0907 25.6515 21.7582 24.6852C21.5209 24.9404 21.3384 25.141 21.1741 25.3598ZM13.9457 26.3625C14.6576 26.2895 14.9131 26.0343 14.9679 25.5238C15.1139 24.0471 15.2599 22.5886 15.4425 21.1119C15.479 20.8567 15.6433 20.565 15.8258 20.3827C17.9432 18.4137 20.0789 16.4994 22.1963 14.5487C24.8613 12.1058 27.5263 9.64456 30.1731 7.18336C30.3921 6.98282 30.6477 6.67289 30.6477 6.41765C30.6294 6.05303 30.4652 5.59725 30.2096 5.36025C29.8263 5.01386 29.3152 5.01386 28.8223 5.32379C26.4311 6.8552 24.0216 8.36838 21.6304 9.89979C18.2535 12.0693 14.8949 14.2388 11.5179 16.4083C11.0981 16.6818 10.7148 16.9552 10.8973 17.5569C11.7187 20.2733 12.5219 22.9897 13.3616 25.7061C13.4528 25.9796 13.7996 26.1984 13.9457 26.3625Z" fill="white"/>
<path d="M21.1742 25.3597C21.3567 25.1592 21.521 24.9404 21.7583 24.6852C23.0908 25.6514 24.4233 26.6359 25.7558 27.6021C26.5772 28.2038 27.3986 28.8236 28.2383 29.4252C29.078 30.0269 29.6438 29.8081 29.8446 28.7872C31.67 20.018 33.4771 11.2488 35.2842 2.46146C35.3389 2.22446 35.2477 1.95099 35.2294 1.69576C34.9921 1.73222 34.7548 1.73222 34.5358 1.80514C23.7844 5.83421 13.0331 9.86329 2.29997 13.9106C2.06267 14.0017 1.86188 14.2387 1.66109 14.4211C1.88014 14.5669 2.09918 14.7857 2.33648 14.8768C4.70944 15.6425 7.10066 16.4082 9.49188 17.1375C10.1308 17.338 10.4776 17.6662 10.6784 18.2861C11.6275 21.2577 12.6132 24.2112 13.5807 27.1646C13.9458 28.2585 14.11 28.2949 14.968 27.4745C16.1909 26.3077 17.4139 25.1592 18.6369 23.9924C19.5679 23.1173 19.8051 23.1173 20.7908 24.0471C20.6631 24.2658 20.517 24.5028 20.371 24.7399C18.7282 26.2348 17.1401 27.7844 15.4608 29.2247C14.3108 30.2092 12.6863 29.644 12.1752 28.1491C11.2077 25.2686 10.2585 22.3698 9.3276 19.4711C9.16331 18.9424 8.88951 18.6689 8.3419 18.5048C6.09671 17.812 3.86978 17.0828 1.64284 16.3718C0.547625 16.0254 0.0182718 15.3873 1.81844e-05 14.4393C-0.0182354 13.473 0.456358 12.8167 1.51507 12.4156C12.4125 8.3501 23.2916 4.26634 34.189 0.182575C35.9231 -0.473744 37.2921 0.711277 36.9453 2.51615C36.0873 6.81869 35.2112 11.1212 34.335 15.4238C33.4041 19.9268 32.4366 24.4117 31.5057 28.9148C30.9946 31.3942 29.1327 32.1234 27.0701 30.6103C24.9892 29.0971 22.9265 27.5657 20.8091 26.016C20.9186 25.779 21.0464 25.5603 21.1742 25.3597Z" fill="#1F211F"/>
<path d="M13.9457 26.3623C13.7997 26.1982 13.4529 25.9795 13.3616 25.706C12.522 22.9896 11.7188 20.2731 10.8974 17.5567C10.7149 16.9733 11.0982 16.6816 11.518 16.4081C14.8949 14.2386 18.2536 12.0691 21.6122 9.89964C24.0035 8.36823 26.4129 6.85505 28.8042 5.32364C29.297 5.01371 29.8081 4.99548 30.1914 5.3601C30.447 5.5971 30.6113 6.05288 30.6295 6.4175C30.6478 6.67274 30.374 6.98267 30.1549 7.18321C27.5081 9.64441 24.8431 12.1056 22.1781 14.5486C20.0789 16.4993 17.9433 18.4136 15.8441 20.3643C15.6433 20.5466 15.4973 20.8383 15.4608 21.0935C15.2782 22.552 15.1322 24.0287 14.9862 25.5055C14.9132 26.0159 14.6576 26.2894 13.9457 26.3623ZM23.9304 10.4101C21.8678 11.7228 19.8234 13.0172 17.7607 14.3298C16.0632 15.4237 14.3473 16.5175 12.6315 17.6296C12.9783 18.7782 13.3251 19.8903 13.6354 20.9295C13.8727 20.4372 14.0187 19.8538 14.3656 19.4892C15.4973 18.3589 16.7203 17.3197 17.8885 16.2441C19.9512 14.348 22.0138 12.452 24.0765 10.5377C24.1677 10.4466 24.2773 10.3554 24.3685 10.2643C24.3503 10.2278 24.3138 10.2096 24.2955 10.1731C24.1677 10.2643 24.0582 10.3372 23.9304 10.4101Z" fill="#20201F"/>
<path d="M24.0765 10.556C22.0138 12.452 19.9694 14.3481 17.8885 16.2441C16.7203 17.3197 15.4973 18.3589 14.3656 19.4892C14.0005 19.8539 13.8727 20.4373 13.6354 20.9295C13.3251 19.9086 12.9783 18.7965 12.6315 17.6297C14.3656 16.5176 16.0631 15.4237 17.7607 14.3298C19.8051 13.0172 21.8678 11.7046 23.9304 10.4102C23.9852 10.4648 24.0217 10.5013 24.0765 10.556Z" fill="#2D97F3"/>
<path d="M23.9304 10.4103C24.0399 10.3374 24.1677 10.2463 24.2772 10.1733C24.2955 10.2098 24.332 10.228 24.3502 10.2645C24.259 10.3557 24.1495 10.4468 24.0582 10.538C24.0217 10.5015 23.9852 10.465 23.9304 10.4103Z" fill="#2D97F3"/>
</svg>
