<svg width="31" height="35" viewBox="0 0 31 35" fill="none" xmlns="http://www.w3.org/2000/svg">
<path d="M15.401 8.12708C20.7992 8.16343 25.1085 12.4435 25.0808 17.7323C25.0532 22.9847 20.6793 27.2193 15.3272 27.183C9.96597 27.1466 5.67512 22.8484 5.72125 17.5505C5.75817 12.3617 10.1413 8.09982 15.401 8.12708ZM15.3918 26.1652C20.1902 26.1561 24.0566 22.3486 24.0566 17.6232C24.0566 12.9251 20.1533 9.11759 15.3457 9.12668C10.6119 9.13576 6.74552 12.9797 6.75475 17.6687C6.76398 22.3577 10.6396 26.1743 15.3918 26.1652Z" fill="black" fill-opacity="0.4" stroke="#999999" stroke-width="0.5"/>
<path d="M9.53231 33.9996C9.43081 33.6906 9.32931 33.3907 9.2278 33.0727C10.4089 32.691 11.5624 32.3184 12.7158 31.955C9.26471 31.2189 6.37646 29.5832 4.12492 26.9115C1.87338 24.2399 0.756832 21.1593 0.710693 17.6517C1.02443 17.6517 1.30126 17.6244 1.56886 17.6698C1.64268 17.6789 1.74419 17.8788 1.74419 17.9879C1.77187 19.3691 1.99333 20.7322 2.49163 22.0226C4.36484 26.9297 7.90825 29.9103 13.1403 30.9099C13.8601 31.0462 14.6075 31.0553 15.3365 31.1098C15.6226 31.128 15.8348 31.2371 15.8902 31.5278C15.9455 31.8368 15.7887 32.0276 15.5026 32.1276C13.5556 32.7546 11.6085 33.3726 9.65227 33.9905C9.62459 33.9996 9.60613 33.9905 9.53231 33.9996Z" fill="#999999" stroke="#999999" stroke-width="0.4"/>
<path d="M20.6516 1.23096C20.7808 1.56718 20.8915 1.85798 21.0115 2.18512C19.9503 2.57587 18.9076 2.95753 17.8002 3.36645C22.0357 4.16613 25.3208 6.26528 27.683 9.72751C29.2425 12.0175 30.2299 15.298 30.073 17.6243C29.75 17.6243 29.4271 17.6243 29.1041 17.6243C29.0395 16.97 29.0026 16.3248 28.9103 15.6887C28.1629 10.3182 23.8905 5.72913 18.5108 4.56597C17.5511 4.35696 16.5545 4.31152 15.5672 4.21156C15.2534 4.1843 14.9858 4.12978 14.9212 3.78447C14.8566 3.43915 15.0689 3.27558 15.3734 3.16653C17.1174 2.53043 18.8614 1.88524 20.6516 1.23096Z" fill="#999999" stroke="#999999" stroke-width="0.4"/>
<path d="M16.2223 23.5762C16.2223 23.9851 16.2223 24.3668 16.2223 24.7666C15.8809 24.7666 15.5672 24.7666 15.2073 24.7666C15.2073 24.4122 15.2073 24.0669 15.2073 23.7034C13.9985 23.6216 12.9834 23.2036 12.2452 22.2676C11.8392 21.7497 11.627 21.1681 11.6177 20.4774C11.9499 20.4774 12.2637 20.4774 12.6051 20.4774C12.6512 20.6592 12.6789 20.8591 12.7435 21.0499C13.1034 22.1404 14.4137 22.8492 15.6779 22.6493C16.4069 22.5312 17.0436 22.2313 17.4865 21.6315C18.0679 20.8591 18.0309 19.8777 17.3942 19.1507C16.8867 18.5691 16.2223 18.3056 15.4564 18.2329C14.3953 18.142 13.4633 17.7513 12.7896 16.9062C11.507 15.2977 12.2268 13.0441 14.2568 12.2535C14.5429 12.1445 14.8474 12.0809 15.1981 11.9809C15.1981 11.5356 15.1981 11.054 15.1981 10.5542C15.5579 10.5542 15.8717 10.5542 16.2316 10.5542C16.2316 11.0358 16.2316 11.5265 16.2316 11.99C18.1694 12.5352 19.2767 13.7075 19.1475 15.0978C18.9906 15.0978 18.8337 15.0978 18.6769 15.0978C18.52 15.0978 18.3539 15.0978 18.1786 15.0978C18.0679 14.1255 17.5419 13.4894 16.6376 13.1713C15.6502 12.826 14.7182 12.9623 13.9154 13.6439C12.9742 14.4344 12.9742 15.7612 13.9062 16.5699C14.3953 16.997 14.9766 17.1515 15.6133 17.2242C16.9052 17.3605 17.9479 17.9148 18.5846 19.0689C19.4889 20.7228 18.6123 22.7402 16.7114 23.4308C16.5637 23.4762 16.4069 23.5217 16.2223 23.5762Z" fill="#999999" stroke="#999999" stroke-width="0.6"/>
</svg>
