<svg width="21" height="24" viewBox="0 0 21 24" fill="none" xmlns="http://www.w3.org/2000/svg">
<g clip-path="url(#clip0_911_9761)">
<path d="M10.481 23.4131C7.99962 23.4131 5.5178 23.3871 3.03681 23.423C1.59116 23.4438 0.250928 22.4181 0.022777 20.8531C0.000425803 20.6996 0.00548645 20.541 0.00548645 20.385C0.00464301 16.4479 0.00801677 12.5108 4.08033e-06 8.57324C-0.000839361 8.20362 0.129051 7.94442 0.414555 7.7206C3.57957 5.23982 6.73952 2.75179 9.90158 0.266325C10.3566 -0.0913604 10.6468 -0.0883761 11.1115 0.276983C14.2778 2.76671 17.4432 5.25772 20.612 7.74404C20.8785 7.95337 20.9979 8.20234 20.9971 8.54553C20.9911 12.4971 20.9806 16.4487 21 20.3999C21.0068 21.8072 20.0241 23.1412 18.5148 23.3876C18.3427 23.4157 18.1644 23.4119 17.9889 23.4119C15.486 23.4136 12.9835 23.4131 10.481 23.4131ZM10.4777 21.8477C12.9515 21.8477 15.4253 21.8477 17.8991 21.8477C18.8669 21.8477 19.4439 21.2675 19.4443 20.2839C19.446 16.5536 19.4439 12.8233 19.4481 9.09293C19.4481 8.9126 19.3966 8.79237 19.2532 8.67982C16.3952 6.43864 13.5398 4.19319 10.6877 1.94434C10.5468 1.83349 10.4536 1.83051 10.3115 1.94263C7.45898 4.19277 4.60351 6.43864 1.74466 8.68068C1.60086 8.79365 1.54983 8.91217 1.55025 9.09251C1.55489 12.8156 1.55278 16.5391 1.55573 20.2622C1.55573 20.4383 1.5688 20.6194 1.61056 20.7896C1.76997 21.4384 2.31609 21.8468 3.01404 21.8473C5.50177 21.8485 7.98992 21.8477 10.4777 21.8477Z" fill="#999999"/>
</g>
<defs>
<clipPath id="clip0_911_9761">
<rect width="21" height="23.4231" fill="white"/>
</clipPath>
</defs>
</svg>
