<svg width="27" height="26" viewBox="0 0 27 26" fill="none" xmlns="http://www.w3.org/2000/svg">
<path d="M0.399994 13.7632C0.399994 13.2551 0.399994 12.7476 0.399994 12.2395C0.41525 12.1581 0.43877 12.078 0.444491 11.996C0.522679 10.8246 0.76805 9.68699 1.16725 8.5856C3.43979 2.32318 10.0413 -1.20548 16.515 0.376663C23.1934 2.00904 27.474 8.6918 26.1645 15.4388C25.6623 18.0263 24.4902 20.2641 22.6378 22.1343C20.6958 24.0954 18.3623 25.3297 15.6365 25.7996C15.147 25.8842 14.6512 25.9338 14.1579 25.9999C13.65 25.9999 13.1427 25.9999 12.6348 25.9999C12.2922 25.9592 11.9483 25.9243 11.6063 25.8759C9.0439 25.5141 6.77772 24.4903 4.83827 22.7772C2.5543 20.7594 1.1253 18.2489 0.599596 15.2378C0.514415 14.7495 0.465468 14.2547 0.399994 13.7632ZM22.4922 19.9531C25.841 15.7001 25.8772 8.88384 21.1141 4.52342C16.4387 0.243758 9.20663 0.575702 4.93299 5.2687C0.638372 9.98396 1.41517 16.4085 4.30749 19.9391C4.87069 18.6539 5.66338 17.5373 6.69 16.5904C7.72106 15.6391 8.90914 14.944 10.2485 14.4798C7.39305 12.3101 7.56214 8.50357 9.57659 6.43369C11.4912 4.46682 14.7516 4.28686 16.8309 6.08712C17.937 7.04479 18.5911 8.2492 18.7004 9.70798C18.846 11.6634 18.0832 13.2392 16.5334 14.4786C17.8906 14.9434 19.0691 15.6391 20.0964 16.5828C21.13 17.5335 21.9252 18.6584 22.4922 19.9531ZM13.4828 24.4833C13.6875 24.4712 13.9837 24.4579 14.278 24.435C16.9574 24.227 19.2681 23.1797 21.2336 21.3584C21.2883 21.3076 21.3226 21.1747 21.2965 21.106C20.1326 18.0485 17.9389 16.1815 14.7249 15.6086C12.4759 15.2073 10.3877 15.7408 8.52265 17.0642C7.08856 18.0816 6.08674 19.4386 5.49111 21.0945C5.44725 21.2166 5.46886 21.2879 5.56485 21.3756C7.77891 23.4099 10.3896 24.4375 13.4828 24.4833ZM13.3964 6.35038C11.3012 6.35038 9.58613 8.06924 9.58994 10.1646C9.59376 12.2503 11.2986 13.9578 13.3843 13.9654C15.4788 13.973 17.1996 12.2599 17.2034 10.1639C17.2066 8.06861 15.4915 6.34975 13.3964 6.35038Z" fill="#3462B5"/>
<path d="M22.4922 19.9529C21.9252 18.6582 21.1293 17.5333 20.0951 16.5826C19.0679 15.6389 17.8899 14.9433 16.5321 14.4784C18.0819 13.239 18.8454 11.6632 18.6992 9.70782C18.5905 8.24905 17.9357 7.04464 16.8296 6.08696C14.751 4.28671 11.49 4.46603 9.57532 6.43353C7.56087 8.50341 7.39178 12.31 10.2472 14.4797C8.90786 14.9445 7.72042 15.6396 6.68872 16.5903C5.66211 17.5371 4.87006 18.6538 4.30621 19.9389C1.41516 16.4084 0.63837 9.98381 4.93299 5.26855C9.20663 0.57555 16.4387 0.243606 21.1141 4.52327C25.8778 8.88369 25.8416 15.7 22.4922 19.9529Z" fill="white"/>
<path d="M13.4828 24.4847C10.389 24.4389 7.77826 23.4113 5.56484 21.3777C5.46886 21.2899 5.44724 21.2187 5.4911 21.0966C6.08737 19.4401 7.08856 18.0837 8.52264 17.0662C10.3877 15.7429 12.4753 15.2094 14.7249 15.6106C17.9389 16.1836 20.132 18.0506 21.2965 21.1081C21.3226 21.1761 21.2883 21.3096 21.2336 21.3605C19.2681 23.1818 16.958 24.2285 14.278 24.437C13.9837 24.4593 13.6881 24.4726 13.4828 24.4847Z" fill="white"/>
<path d="M13.3964 6.35059C15.4915 6.35059 17.2072 8.06881 17.2034 10.1641C17.1996 12.2601 15.4788 13.9732 13.3843 13.9656C11.2986 13.958 9.59376 12.2505 9.58994 10.1648C9.58549 8.06944 11.3012 6.35059 13.3964 6.35059Z" fill="white"/>
</svg>
