<svg width="25" height="27" viewBox="0 0 25 27" fill="none" xmlns="http://www.w3.org/2000/svg">
<path d="M0.422482 20.8125C0.622339 20.1402 0.78514 19.455 1.02934 18.798C1.55966 17.373 2.36941 16.0995 3.41061 14.9681C4.86852 13.3841 6.63564 12.2403 8.70771 11.5393C8.75813 11.5223 8.80612 11.4964 8.87415 11.4665C7.17021 10.1443 6.25598 8.44921 6.25233 6.34962C6.24929 4.6076 6.91143 3.09867 8.18529 1.86452C10.75 -0.620227 14.8504 -0.615529 17.485 1.84279C19.9713 4.16255 20.4002 8.78446 16.8301 11.4665C17.2863 11.6491 17.7425 11.8229 18.1909 12.0149C18.6458 12.2098 18.8785 12.6284 18.791 13.0535C18.6677 13.6524 18.059 13.9612 17.4516 13.744C16.7943 13.5091 16.1461 13.2326 15.4694 13.067C12.8749 12.4335 10.3703 12.7141 7.98665 13.8884C5.92126 14.9053 4.36797 16.433 3.30491 18.4205C2.87664 19.2207 2.57777 20.0703 2.38824 20.9528C2.26918 21.5059 2.63487 22.012 3.21136 22.1041C3.32981 22.1229 3.45252 22.1241 3.57341 22.1241C7.4296 22.1253 11.2858 22.1241 15.142 22.1276C15.3169 22.1276 15.504 22.1382 15.665 22.1963C16.0477 22.3349 16.2536 22.6238 16.2822 23.0177C16.3095 23.3923 16.0848 23.7434 15.7294 23.9066C15.6577 23.9395 15.5836 23.9689 15.5107 24C11.338 24 7.16596 24 2.99328 24C2.95744 23.9853 2.92281 23.9636 2.88515 23.9571C1.93325 23.7933 1.21766 23.3007 0.77299 22.4758C0.612012 22.1775 0.536686 21.8364 0.421875 21.5153C0.422482 21.281 0.422482 21.0467 0.422482 20.8125ZM8.18589 6.36665C8.18043 8.80325 10.2683 10.8641 12.7467 10.8688C15.391 10.8735 17.4874 8.89778 17.4996 6.38837C17.5117 3.91478 15.4196 1.88037 12.8543 1.87156C10.2944 1.86217 8.19136 3.88719 8.18589 6.36665Z" fill="#999999"/>
<path d="M20.19 24.1585C20.19 23.1002 20.19 22.1432 20.19 21.1861C20.19 20.0943 20.1852 19.0019 20.1924 17.9102C20.196 17.3007 20.6621 16.8923 21.1824 17.0251C21.5674 17.1232 21.7924 17.4503 21.793 17.9319C21.7947 19.8684 21.7936 21.8055 21.7936 23.742C21.7936 23.8512 21.7936 23.9605 21.7936 24.1312C21.9093 24.0219 21.9815 23.9592 22.0484 23.8903C22.5604 23.3597 23.0677 22.8234 23.5839 22.2971C23.9521 21.9216 24.4522 21.911 24.7733 22.258C25.092 22.6018 25.0765 23.0922 24.7154 23.4708C23.6824 24.5514 22.6464 25.6301 21.6056 26.7038C21.2189 27.1029 20.7635 27.0973 20.3744 26.6951C19.342 25.6276 18.3119 24.5569 17.286 23.4826C16.9166 23.0965 16.9071 22.5919 17.2455 22.2481C17.5725 21.916 18.0499 21.9321 18.411 22.3027C18.9869 22.8942 19.5544 23.4944 20.19 24.1585Z" fill="#999999"/>
</svg>
