<svg width="33" height="34" viewBox="0 0 33 34" fill="none" xmlns="http://www.w3.org/2000/svg">
<path d="M3.05176e-05 15.2785C0.266437 14.6636 0.721905 14.3255 1.23753 14.0795C9.98597 9.99094 18.7258 5.90233 27.4657 1.81372C28.5141 1.32186 29.5539 0.799254 30.611 0.34838C31.075 0.153684 31.5821 0.0204717 32.0805 -0.0102698C32.725 -0.0512583 33.1031 0.56357 32.9742 1.32186C31.7282 8.83301 30.4735 16.3442 29.2188 23.8656C28.7547 26.6425 28.2907 29.4093 27.8438 32.1862C27.586 33.7336 25.9961 34.5328 24.9391 33.5696C20.986 29.9831 17.0414 26.3659 13.0969 22.7691C13.0539 22.7281 13.0196 22.6871 12.9594 22.6154C13.8532 21.6522 14.7383 20.7094 15.6149 19.7667C19.6024 15.4834 23.5985 11.2001 27.586 6.90655C27.7922 6.69136 27.9727 6.42493 28.1102 6.13801C28.2477 5.85109 28.1102 5.59491 27.8352 5.6564C27.5258 5.72813 27.2164 5.86134 26.95 6.05604C24.4321 7.94151 21.9313 9.84748 19.4219 11.7534C15.8555 14.4587 12.2805 17.1537 8.71409 19.8692C8.52503 20.0126 8.37034 20.0536 8.1469 19.9614C5.89534 19.0494 3.63519 18.1477 1.38362 17.2357C0.764874 17 0.257843 16.5696 3.05176e-05 15.8216C3.05176e-05 15.6371 3.05176e-05 15.4629 3.05176e-05 15.2785Z" fill="white"/>
</svg>
